<?xml version="1.0" standalone="no"?><!-- Generator: Gravit.io --><svg xmlns="http://www.w3.org/2000/svg" xmlns:xlink="http://www.w3.org/1999/xlink" style="isolation:isolate" viewBox="0 0 90 380" width="90" height="380"><defs><clipPath id="_clipPath_Q6qoGFE0MXT6TmM2VEIi0yPlUWKXcp9C"><rect width="90" height="380"/></clipPath></defs><g clip-path="url(#_clipPath_Q6qoGFE0MXT6TmM2VEIi0yPlUWKXcp9C)"><path d=" M 0 0 L 90 0 L 90 380 L 0 380 L 0 0 Z " fill="rgb(230,230,230)"/><g style="isolation:isolate" id="Components"><g id="Group"><path d=" M 22.967 299.934 C 16.367 299.934 11 294.567 11 287.967 C 11 281.367 16.367 276 22.967 276 C 29.567 276 34.934 281.367 34.934 287.967 C 34.934 294.567 29.567 299.934 22.967 299.934 Z " fill="rgb(230,230,230)" vector-effect="non-scaling-stroke" stroke-width="0.738" stroke="rgb(99,102,99)" stroke-linejoin="miter" stroke-linecap="butt" stroke-miterlimit="4"/><path d=" M 22.967 296.585 C 18.214 296.585 14.349 292.72 14.349 287.967 C 14.349 283.214 18.214 279.349 22.967 279.349 C 27.72 279.349 31.585 283.214 31.585 287.967 C 31.585 292.72 27.72 296.585 22.967 296.585 Z " fill="rgb(230,230,230)" vector-effect="non-scaling-stroke" stroke-width="0.738" stroke="rgb(99,102,99)" stroke-linejoin="miter" stroke-linecap="butt" stroke-miterlimit="4"/><path d=" M 28.281 287.967 C 28.281 290.901 25.901 293.281 22.967 293.281 C 20.033 293.281 17.653 290.901 17.653 287.967 C 17.653 285.033 20.033 282.653 22.967 282.653 C 25.901 282.653 28.281 285.033 28.281 287.967 Z " fill="rgb(0,0,0)"/></g><g id="Group"><path d=" M 22.967 169.934 C 16.367 169.934 11 164.567 11 157.967 C 11 151.367 16.367 146 22.967 146 C 29.567 146 34.934 151.367 34.934 157.967 C 34.934 164.567 29.567 169.934 22.967 169.934 Z " fill="rgb(230,230,230)" vector-effect="non-scaling-stroke" stroke-width="0.738" stroke="rgb(99,102,99)" stroke-linejoin="miter" stroke-linecap="butt" stroke-miterlimit="4"/><path d=" M 22.967 166.585 C 18.214 166.585 14.349 162.72 14.349 157.967 C 14.349 153.214 18.214 149.349 22.967 149.349 C 27.72 149.349 31.585 153.214 31.585 157.967 C 31.585 162.72 27.72 166.585 22.967 166.585 Z " fill="rgb(230,230,230)" vector-effect="non-scaling-stroke" stroke-width="0.738" stroke="rgb(99,102,99)" stroke-linejoin="miter" stroke-linecap="butt" stroke-miterlimit="4"/><path d=" M 28.281 157.967 C 28.281 160.901 25.901 163.281 22.967 163.281 C 20.033 163.281 17.653 160.901 17.653 157.967 C 17.653 155.033 20.033 152.653 22.967 152.653 C 25.901 152.653 28.281 155.033 28.281 157.967 Z " fill="rgb(0,0,0)"/></g><g id="Group"><path d=" M 44.967 342.934 C 38.367 342.934 33 337.567 33 330.967 C 33 324.367 38.367 319 44.967 319 C 51.567 319 56.934 324.367 56.934 330.967 C 56.934 337.567 51.567 342.934 44.967 342.934 Z " fill="rgb(230,230,230)" vector-effect="non-scaling-stroke" stroke-width="0.738" stroke="rgb(99,102,99)" stroke-linejoin="miter" stroke-linecap="butt" stroke-miterlimit="4"/><path d=" M 44.967 339.585 C 40.214 339.585 36.349 335.72 36.349 330.967 C 36.349 326.214 40.214 322.349 44.967 322.349 C 49.72 322.349 53.585 326.214 53.585 330.967 C 53.585 335.72 49.72 339.585 44.967 339.585 Z " fill="rgb(230,230,230)" vector-effect="non-scaling-stroke" stroke-width="0.738" stroke="rgb(99,102,99)" stroke-linejoin="miter" stroke-linecap="butt" stroke-miterlimit="4"/><path d=" M 50.281 330.967 C 50.281 333.901 47.901 336.281 44.967 336.281 C 42.033 336.281 39.653 333.901 39.653 330.967 C 39.653 328.033 42.033 325.653 44.967 325.653 C 47.901 325.653 50.281 328.033 50.281 330.967 Z " fill="rgb(0,0,0)"/></g><g id="Group"><path d=" M 67.967 299.934 C 61.367 299.934 56 294.567 56 287.967 C 56 281.367 61.367 276 67.967 276 C 74.567 276 79.934 281.367 79.934 287.967 C 79.934 294.567 74.567 299.934 67.967 299.934 Z " fill="rgb(230,230,230)" vector-effect="non-scaling-stroke" stroke-width="0.738" stroke="rgb(99,102,99)" stroke-linejoin="miter" stroke-linecap="butt" stroke-miterlimit="4"/><path d=" M 67.967 296.585 C 63.214 296.585 59.349 292.72 59.349 287.967 C 59.349 283.214 63.214 279.349 67.967 279.349 C 72.72 279.349 76.585 283.214 76.585 287.967 C 76.585 292.72 72.72 296.585 67.967 296.585 Z " fill="rgb(230,230,230)" vector-effect="non-scaling-stroke" stroke-width="0.738" stroke="rgb(99,102,99)" stroke-linejoin="miter" stroke-linecap="butt" stroke-miterlimit="4"/><path d=" M 73.281 287.967 C 73.281 290.901 70.901 293.281 67.967 293.281 C 65.033 293.281 62.653 290.901 62.653 287.967 C 62.653 285.033 65.033 282.653 67.967 282.653 C 70.901 282.653 73.281 285.033 73.281 287.967 Z " fill="rgb(0,0,0)"/></g><g id="Group"><g id="Group"><g id="Group"><path d=" M 30.356 224.677 C 30.356 228.916 26.917 232.353 22.677 232.353 C 18.438 232.353 15 228.916 15 224.677 C 15 220.436 18.438 217 22.677 217 C 26.917 217 30.356 220.436 30.356 224.677 Z " fill="rgb(33,34,33)"/></g><clipPath id="_clipPath_61xqkIZzMSkB5QGyUn27HqbFo6NubvYN"><path d=" M 16.814 224.677 L 28.627 224.677 L 28.627 230.76 L 16.814 230.76 L 16.814 224.677 Z " fill="rgb(255,255,255)"/></clipPath><g clip-path="url(#_clipPath_61xqkIZzMSkB5QGyUn27HqbFo6NubvYN)"><g id="Group" style="opacity:0.5;"><g id="Group" style="opacity:0.5;"><g opacity="0.5"><path d=" M 22.835 231.667 C 18.739 231.667 15.41 228.541 15.288 224.473 C 15.287 224.547 15.278 224.623 15.278 224.698 C 15.278 228.873 18.661 232.255 22.835 232.255 C 27.01 232.255 30.394 228.873 30.394 224.698 C 30.394 224.623 30.385 224.547 30.384 224.473 C 30.262 228.541 26.933 231.667 22.835 231.667 Z " fill="rgb(193,193,193)"/></g></g></g></g></g></g><g id="Group"><g id="g2012"><g id="g6443"><path d=" M 71.999 89.002 C 71.999 103.913 59.909 116.001 45 116.001 C 30.088 116.001 18 103.913 18 89.002 C 18 74.09 30.088 62.002 45 62.002 C 59.909 62.002 71.999 74.09 71.999 89.002 Z " fill="rgb(170,170,170)"/></g><g id="g6447"><path d=" M 71.847 86.148 C 70.662 84.23 68.667 82.343 67.557 79.658 C 66.447 76.982 66.521 74.244 66.008 72.057 C 64.8 70.562 63.441 69.204 61.944 67.995 C 59.756 67.484 57.021 67.556 54.342 66.446 C 51.657 65.333 49.77 63.342 47.855 62.156 C 46.917 62.057 45.965 62 45.002 62 C 44.036 62 43.083 62.057 42.147 62.156 C 40.229 63.342 38.342 65.333 35.657 66.446 C 32.981 67.556 30.247 67.484 28.057 67.995 C 26.561 69.204 25.201 70.562 23.995 72.057 C 23.482 74.244 23.554 76.982 22.442 79.658 C 21.332 82.343 19.339 84.23 18.155 86.148 C 18.056 87.086 18.001 88.038 18.001 89.001 C 18.001 89.966 18.056 90.918 18.155 91.859 C 19.339 93.774 21.332 95.661 22.442 98.346 C 23.554 101.022 23.482 103.759 23.995 105.945 C 25.201 107.442 26.561 108.801 28.057 110.008 C 30.247 110.521 32.981 110.448 35.657 111.556 C 38.342 112.671 40.229 114.663 42.147 115.848 C 43.083 115.945 44.036 116.002 45.002 116.002 C 45.965 116.002 46.917 115.945 47.855 115.848 C 49.77 114.663 51.657 112.671 54.342 111.556 C 57.021 110.448 59.756 110.521 61.944 110.008 C 63.441 108.801 64.8 107.442 66.008 105.945 C 66.521 103.759 66.447 101.022 67.557 98.346 C 68.667 95.661 70.662 93.774 71.847 91.859 C 71.945 90.918 72 89.966 72 89.001 C 72 88.038 71.945 87.086 71.847 86.148 Z " fill-rule="evenodd" fill="rgb(0,0,0)"/></g><g id="g6451"><path d=" M 45.898 62.105 C 45.605 62.037 45.308 62.001 45.001 62.001 C 44.692 62.001 44.395 62.037 44.104 62.105 L 44.104 89.34 L 45.898 89.34 L 45.898 62.105 Z " fill-rule="evenodd" fill="rgb(255,255,255)"/></g></g></g><g id="Group"><g id="g2012"><g id="g6443"><path d=" M 85 224.001 C 85 233.942 76.94 242.001 67 242.001 C 57.059 242.001 49 233.942 49 224.001 C 49 214.06 57.059 206.001 67 206.001 C 76.94 206.001 85 214.06 85 224.001 Z " fill="rgb(170,170,170)"/></g><g id="g6447"><path d=" M 84.898 222.099 C 84.108 220.82 82.778 219.562 82.038 217.772 C 81.298 215.988 81.347 214.163 81.005 212.705 C 80.2 211.708 79.294 210.803 78.296 209.997 C 76.837 209.656 75.014 209.704 73.228 208.964 C 71.438 208.222 70.18 206.895 68.903 206.104 C 68.278 206.038 67.643 206 67.001 206 C 66.357 206 65.722 206.038 65.098 206.104 C 63.819 206.895 62.561 208.222 60.771 208.964 C 58.987 209.704 57.164 209.656 55.704 209.997 C 54.707 210.803 53.8 211.708 52.996 212.705 C 52.654 214.163 52.702 215.988 51.961 217.772 C 51.221 219.562 49.892 220.82 49.104 222.099 C 49.037 222.724 49.001 223.359 49.001 224.001 C 49.001 224.644 49.037 225.279 49.104 225.906 C 49.892 227.183 51.221 228.441 51.961 230.231 C 52.702 232.015 52.654 233.84 52.996 235.297 C 53.8 236.295 54.707 237.201 55.704 238.006 C 57.164 238.348 58.987 238.299 60.771 239.038 C 62.561 239.781 63.819 241.109 65.098 241.899 C 65.722 241.964 66.357 242.002 67.001 242.002 C 67.643 242.002 68.278 241.964 68.903 241.899 C 70.18 241.109 71.438 239.781 73.228 239.038 C 75.014 238.299 76.837 238.348 78.296 238.006 C 79.294 237.201 80.2 236.295 81.005 235.297 C 81.347 233.84 81.298 232.015 82.038 230.231 C 82.778 228.441 84.108 227.183 84.898 225.906 C 84.963 225.279 85 224.644 85 224.001 C 85 223.359 84.963 222.724 84.898 222.099 Z " fill-rule="evenodd" fill="rgb(0,0,0)"/></g><g id="g6451"><path d=" M 67.598 206.07 C 67.403 206.025 67.205 206.001 67 206.001 C 66.794 206.001 66.596 206.025 66.402 206.07 L 66.402 224.226 L 67.598 224.226 L 67.598 206.07 Z " fill-rule="evenodd" fill="rgb(255,255,255)"/></g></g></g><g id="Group"><g id="g2012"><g id="g6443"><path d=" M 85 158.001 C 85 167.942 76.94 176.001 67 176.001 C 57.059 176.001 49 167.942 49 158.001 C 49 148.06 57.059 140.001 67 140.001 C 76.94 140.001 85 148.06 85 158.001 Z " fill="rgb(170,170,170)"/></g><g id="g6447"><path d=" M 84.898 156.099 C 84.108 154.82 82.778 153.562 82.038 151.772 C 81.298 149.988 81.347 148.163 81.005 146.705 C 80.2 145.708 79.294 144.803 78.296 143.997 C 76.837 143.656 75.014 143.704 73.228 142.964 C 71.438 142.222 70.18 140.895 68.903 140.104 C 68.278 140.038 67.643 140 67.001 140 C 66.357 140 65.722 140.038 65.098 140.104 C 63.819 140.895 62.561 142.222 60.771 142.964 C 58.987 143.704 57.164 143.656 55.704 143.997 C 54.707 144.803 53.8 145.708 52.996 146.705 C 52.654 148.163 52.702 149.988 51.961 151.772 C 51.221 153.562 49.892 154.82 49.104 156.099 C 49.037 156.724 49.001 157.359 49.001 158.001 C 49.001 158.644 49.037 159.279 49.104 159.906 C 49.892 161.183 51.221 162.441 51.961 164.231 C 52.702 166.015 52.654 167.84 52.996 169.297 C 53.8 170.295 54.707 171.201 55.704 172.006 C 57.164 172.348 58.987 172.299 60.771 173.038 C 62.561 173.781 63.819 175.109 65.098 175.899 C 65.722 175.964 66.357 176.002 67.001 176.002 C 67.643 176.002 68.278 175.964 68.903 175.899 C 70.18 175.109 71.438 173.781 73.228 173.038 C 75.014 172.299 76.837 172.348 78.296 172.006 C 79.294 171.201 80.2 170.295 81.005 169.297 C 81.347 167.84 81.298 166.015 82.038 164.231 C 82.778 162.441 84.108 161.183 84.898 159.906 C 84.963 159.279 85 158.644 85 158.001 C 85 157.359 84.963 156.724 84.898 156.099 Z " fill-rule="evenodd" fill="rgb(0,0,0)"/></g><g id="g6451"><path d=" M 67.598 140.07 C 67.403 140.025 67.205 140.001 67 140.001 C 66.794 140.001 66.596 140.025 66.402 140.07 L 66.402 158.226 L 67.598 158.226 L 67.598 140.07 Z " fill-rule="evenodd" fill="rgb(255,255,255)"/></g></g></g></g><line x1="35.934" y1="159.063" x2="52.934" y2="159.063" vector-effect="non-scaling-stroke" stroke-width="2" stroke="rgb(0,0,0)" stroke-linejoin="miter" stroke-linecap="square" stroke-miterlimit="3"/><path d=" M 35.6 360.026 L 35.6 364.228 L 34.076 364.228 L 34.076 360.026 L 34.076 360.026 Q 34.076 359.728 33.918 359.572 L 33.918 359.572 L 33.918 359.572 Q 33.76 359.417 33.449 359.417 L 33.449 359.417 L 31.469 359.417 L 31.469 364.228 L 29.945 364.228 L 29.945 358.649 L 29.945 358.649 Q 29.945 358.491 30.004 358.354 L 30.004 358.354 L 30.004 358.354 Q 30.063 358.216 30.168 358.113 L 30.168 358.113 L 30.168 358.113 Q 30.273 358.011 30.414 357.952 L 30.414 357.952 L 30.414 357.952 Q 30.555 357.894 30.713 357.894 L 30.713 357.894 L 33.461 357.894 L 33.461 357.894 Q 33.777 357.894 34.141 358.005 L 34.141 358.005 L 34.141 358.005 Q 34.504 358.116 34.832 358.362 L 34.832 358.362 L 34.832 357.894 L 36.895 357.894 L 36.895 357.894 Q 37.111 357.894 37.352 357.943 L 37.352 357.943 L 37.352 357.943 Q 37.592 357.993 37.829 358.099 L 37.829 358.099 L 37.829 358.099 Q 38.066 358.204 38.283 358.371 L 38.283 358.371 L 38.283 358.371 Q 38.5 358.538 38.664 358.775 L 38.664 358.775 L 38.664 358.775 Q 38.828 359.013 38.928 359.323 L 38.928 359.323 L 38.928 359.323 Q 39.027 359.634 39.027 360.026 L 39.027 360.026 L 39.027 364.228 L 37.504 364.228 L 37.504 360.026 L 37.504 360.026 Q 37.504 359.728 37.354 359.572 L 37.354 359.572 L 37.354 359.572 Q 37.205 359.417 36.895 359.417 L 36.895 359.417 L 35.523 359.417 L 35.523 359.417 Q 35.6 359.698 35.6 360.026 L 35.6 360.026 Z  M 48.051 361.409 L 48.051 362.089 L 48.051 362.089 Q 48.051 362.306 48.001 362.546 L 48.001 362.546 L 48.001 362.546 Q 47.951 362.786 47.843 363.023 L 47.843 363.023 L 47.843 363.023 Q 47.734 363.261 47.564 363.478 L 47.564 363.478 L 47.564 363.478 Q 47.395 363.694 47.157 363.861 L 47.157 363.861 L 47.157 363.861 Q 46.92 364.028 46.609 364.128 L 46.609 364.128 L 46.609 364.128 Q 46.299 364.228 45.912 364.228 L 45.912 364.228 L 42.467 364.228 L 42.467 364.228 Q 42.15 364.228 41.775 364.116 L 41.775 364.116 L 41.775 364.116 Q 41.4 364.005 41.081 363.75 L 41.081 363.75 L 41.081 363.75 Q 40.762 363.495 40.548 363.088 L 40.548 363.088 L 40.548 363.088 Q 40.334 362.681 40.334 362.089 L 40.334 362.089 L 40.334 361.409 L 40.334 361.409 Q 40.334 361.187 40.384 360.94 L 40.384 360.94 L 40.384 360.94 Q 40.434 360.694 40.542 360.454 L 40.542 360.454 L 40.542 360.454 Q 40.65 360.214 40.82 359.997 L 40.82 359.997 L 40.82 359.997 Q 40.99 359.78 41.23 359.622 L 41.23 359.622 L 41.23 359.622 Q 41.125 359.376 41.072 359.124 L 41.072 359.124 L 41.072 359.124 Q 41.02 358.872 41.02 358.649 L 41.02 358.649 L 41.02 357.964 L 41.02 357.964 Q 41.02 357.378 41.233 356.968 L 41.233 356.968 L 41.233 356.968 Q 41.447 356.558 41.767 356.306 L 41.767 356.306 L 41.767 356.306 Q 42.086 356.054 42.461 355.939 L 42.461 355.939 L 42.461 355.939 Q 42.836 355.825 43.152 355.825 L 43.152 355.825 L 45.215 355.825 L 45.215 355.825 Q 45.607 355.825 45.921 355.925 L 45.921 355.925 L 45.921 355.925 Q 46.234 356.024 46.472 356.191 L 46.472 356.191 L 46.472 356.191 Q 46.709 356.358 46.876 356.575 L 46.876 356.575 L 46.876 356.575 Q 47.043 356.792 47.148 357.029 L 47.148 357.029 L 47.148 357.029 Q 47.254 357.267 47.304 357.51 L 47.304 357.51 L 47.304 357.51 Q 47.354 357.753 47.354 357.964 L 47.354 357.964 L 47.354 358.649 L 47.354 358.649 Q 47.354 359.224 47.148 359.646 L 47.148 359.646 L 47.148 359.646 Q 47.336 359.769 47.5 359.936 L 47.5 359.936 L 47.5 359.936 Q 47.664 360.103 47.787 360.319 L 47.787 360.319 L 47.787 360.319 Q 47.91 360.536 47.98 360.809 L 47.98 360.809 L 47.98 360.809 Q 48.051 361.081 48.051 361.409 L 48.051 361.409 Z  M 45.83 358.649 L 45.83 357.976 L 45.83 357.976 Q 45.83 357.665 45.672 357.507 L 45.672 357.507 L 45.672 357.507 Q 45.514 357.349 45.215 357.349 L 45.215 357.349 L 43.164 357.349 L 43.164 357.349 Q 42.854 357.349 42.704 357.507 L 42.704 357.507 L 42.704 357.507 Q 42.555 357.665 42.555 357.964 L 42.555 357.964 L 42.555 358.649 L 42.555 358.649 Q 42.555 358.954 42.71 359.106 L 42.71 359.106 L 42.71 359.106 Q 42.865 359.259 43.152 359.259 L 43.152 359.259 L 45.215 359.259 L 45.215 359.259 Q 45.525 359.259 45.678 359.104 L 45.678 359.104 L 45.678 359.104 Q 45.83 358.948 45.83 358.649 L 45.83 358.649 Z  M 46.51 362.089 L 46.51 361.409 L 46.51 361.409 Q 46.51 361.116 46.349 360.955 L 46.349 360.955 L 46.349 360.955 Q 46.188 360.794 45.912 360.794 L 45.912 360.794 L 42.467 360.794 L 42.467 360.794 Q 42.186 360.794 42.021 360.97 L 42.021 360.97 L 42.021 360.97 Q 41.857 361.146 41.857 361.409 L 41.857 361.409 L 41.857 362.089 L 41.857 362.089 Q 41.857 362.37 42.03 362.537 L 42.03 362.537 L 42.03 362.537 Q 42.203 362.704 42.467 362.704 L 42.467 362.704 L 45.912 362.704 L 45.912 362.704 Q 46.205 362.704 46.357 362.528 L 46.357 362.528 L 46.357 362.528 Q 46.51 362.353 46.51 362.089 L 46.51 362.089 Z  M 59.113 359.341 L 59.113 360.712 L 59.113 360.712 Q 59.113 361.228 58.981 361.688 L 58.981 361.688 L 58.981 361.688 Q 58.85 362.147 58.609 362.54 L 58.609 362.54 L 58.609 362.54 Q 58.369 362.933 58.041 363.243 L 58.041 363.243 L 58.041 363.243 Q 57.713 363.554 57.323 363.773 L 57.323 363.773 L 57.323 363.773 Q 56.934 363.993 56.494 364.11 L 56.494 364.11 L 56.494 364.11 Q 56.055 364.228 55.598 364.228 L 55.598 364.228 L 52.85 364.228 L 52.85 364.228 Q 52.387 364.228 51.947 364.11 L 51.947 364.11 L 51.947 364.11 Q 51.508 363.993 51.118 363.773 L 51.118 363.773 L 51.118 363.773 Q 50.729 363.554 50.4 363.243 L 50.4 363.243 L 50.4 363.243 Q 50.072 362.933 49.835 362.54 L 49.835 362.54 L 49.835 362.54 Q 49.598 362.147 49.466 361.688 L 49.466 361.688 L 49.466 361.688 Q 49.334 361.228 49.334 360.712 L 49.334 360.712 L 49.334 359.341 L 49.334 359.341 Q 49.334 358.567 49.624 357.923 L 49.624 357.923 L 49.624 357.923 Q 49.914 357.278 50.4 356.813 L 50.4 356.813 L 50.4 356.813 Q 50.887 356.347 51.522 356.086 L 51.522 356.086 L 51.522 356.086 Q 52.158 355.825 52.85 355.825 L 52.85 355.825 L 55.598 355.825 L 55.598 355.825 Q 56.055 355.825 56.494 355.942 L 56.494 355.942 L 56.494 355.942 Q 56.934 356.06 57.323 356.279 L 57.323 356.279 L 57.323 356.279 Q 57.713 356.499 58.041 356.81 L 58.041 356.81 L 58.041 356.81 Q 58.369 357.12 58.609 357.513 L 58.609 357.513 L 58.609 357.513 Q 58.85 357.905 58.981 358.365 L 58.981 358.365 L 58.981 358.365 Q 59.113 358.825 59.113 359.341 L 59.113 359.341 Z  M 57.578 360.712 L 57.578 359.341 L 57.578 359.341 Q 57.578 358.89 57.414 358.521 L 57.414 358.521 L 57.414 358.521 Q 57.25 358.151 56.978 357.888 L 56.978 357.888 L 56.978 357.888 Q 56.705 357.624 56.348 357.483 L 56.348 357.483 L 56.348 357.483 Q 55.99 357.343 55.598 357.349 L 55.598 357.349 L 52.85 357.349 L 52.85 357.349 Q 52.469 357.343 52.108 357.48 L 52.108 357.48 L 52.108 357.48 Q 51.748 357.618 51.47 357.879 L 51.47 357.879 L 51.47 357.879 Q 51.191 358.14 51.024 358.512 L 51.024 358.512 L 51.024 358.512 Q 50.857 358.884 50.857 359.341 L 50.857 359.341 L 50.857 360.712 L 50.857 360.712 Q 50.857 361.169 51.021 361.538 L 51.021 361.538 L 51.021 361.538 Q 51.186 361.907 51.461 362.168 L 51.461 362.168 L 51.461 362.168 Q 51.736 362.429 52.097 362.569 L 52.097 362.569 L 52.097 362.569 Q 52.457 362.71 52.85 362.704 L 52.85 362.704 L 55.598 362.704 L 55.598 362.704 Q 56.049 362.704 56.415 362.555 L 56.415 362.555 L 56.415 362.555 Q 56.781 362.405 57.039 362.142 L 57.039 362.142 L 57.039 362.142 Q 57.297 361.878 57.438 361.512 L 57.438 361.512 L 57.438 361.512 Q 57.578 361.146 57.578 360.712 L 57.578 360.712 Z  M 56.916 358.228 L 56.916 358.228 L 56.916 358.228 Q 57.004 358.356 57.033 358.506 L 57.033 358.506 L 57.033 358.506 Q 57.063 358.655 57.033 358.799 L 57.033 358.799 L 57.033 358.799 Q 57.004 358.942 56.919 359.068 L 56.919 359.068 L 56.919 359.068 Q 56.834 359.194 56.699 359.282 L 56.699 359.282 L 52.586 362.03 L 52.586 362.03 Q 52.486 362.106 52.381 362.136 L 52.381 362.136 L 52.381 362.136 Q 52.275 362.165 52.164 362.165 L 52.164 362.165 L 52.164 362.165 Q 51.977 362.165 51.807 362.077 L 51.807 362.077 L 51.807 362.077 Q 51.637 361.989 51.531 361.825 L 51.531 361.825 L 51.531 361.825 Q 51.443 361.696 51.414 361.547 L 51.414 361.547 L 51.414 361.547 Q 51.385 361.397 51.411 361.254 L 51.411 361.254 L 51.411 361.254 Q 51.438 361.11 51.52 360.984 L 51.52 360.984 L 51.52 360.984 Q 51.602 360.858 51.736 360.771 L 51.736 360.771 L 55.861 358.022 L 55.861 358.022 Q 55.99 357.935 56.14 357.905 L 56.14 357.905 L 56.14 357.905 Q 56.289 357.876 56.433 357.905 L 56.433 357.905 L 56.433 357.905 Q 56.576 357.935 56.702 358.017 L 56.702 358.017 L 56.702 358.017 Q 56.828 358.099 56.916 358.228 Z " fill-rule="evenodd" fill="rgb(0,0,0)"/><path d=" M 33.791 54.29 L 33.791 47.813 L 34.846 47.813 L 34.846 54.29 L 33.791 54.29 Z  M 36.709 51.741 L 38.186 54.29 L 37.069 54.29 L 35.848 51.943 L 35.848 51.943 Q 35.821 51.943 35.791 51.948 L 35.791 51.948 L 35.791 51.948 Q 35.76 51.952 35.698 51.952 L 35.698 51.952 L 35.698 51.952 Q 35.637 51.952 35.518 51.952 L 35.518 51.952 L 35.518 51.952 Q 35.399 51.952 35.206 51.952 L 35.206 51.952 L 35.206 51.179 L 35.804 51.179 L 35.804 51.179 Q 35.997 51.179 36.19 51.113 L 36.19 51.113 L 36.19 51.113 Q 36.384 51.047 36.542 50.897 L 36.542 50.897 L 36.542 50.897 Q 36.7 50.748 36.797 50.48 L 36.797 50.48 L 36.797 50.48 Q 36.894 50.212 36.894 49.816 L 36.894 49.816 L 36.894 49.816 Q 36.894 49.658 36.85 49.452 L 36.85 49.452 L 36.85 49.452 Q 36.806 49.245 36.669 49.056 L 36.669 49.056 L 36.669 49.056 Q 36.533 48.867 36.287 48.74 L 36.287 48.74 L 36.287 48.74 Q 36.041 48.612 35.637 48.612 L 35.637 48.612 L 35.206 48.612 L 35.206 47.813 L 35.654 47.813 L 35.654 47.813 Q 36.067 47.813 36.472 47.944 L 36.472 47.944 L 36.472 47.944 Q 36.876 48.076 37.197 48.34 L 37.197 48.34 L 37.197 48.34 Q 37.518 48.604 37.715 48.977 L 37.715 48.977 L 37.715 48.977 Q 37.913 49.351 37.913 49.816 L 37.913 49.816 L 37.913 49.816 Q 37.913 50.52 37.588 51.012 L 37.588 51.012 L 37.588 51.012 Q 37.263 51.504 36.709 51.741 L 36.709 51.741 Z  M 42.668 47.821 L 44.918 54.29 L 43.828 54.29 L 42.149 49.438 L 40.453 54.29 L 39.354 54.29 L 41.622 47.821 L 42.668 47.821 Z  M 41.552 52.233 L 42.729 52.233 L 42.984 52.945 L 41.306 52.945 L 41.552 52.233 Z  M 45.92 47.813 L 50.851 47.813 L 50.851 48.533 L 48.917 48.533 L 48.917 54.29 L 47.854 54.29 L 47.854 48.533 L 45.92 48.533 L 45.92 47.813 Z  M 52.134 54.29 L 52.134 47.813 L 53.206 47.813 L 53.206 54.29 L 52.134 54.29 Z  M 55.913 50.651 L 55.913 51.372 L 53.566 51.372 L 53.566 50.651 L 55.913 50.651 Z  M 53.566 54.29 L 53.566 53.49 L 56.186 53.49 L 56.186 54.29 L 53.566 54.29 Z  M 53.566 47.813 L 56.186 47.813 L 56.186 48.612 L 53.566 48.612 L 53.566 47.813 Z " fill-rule="evenodd" fill="rgb(0,0,0)"/><path d=" M 64.983 132.29 L 64.983 125.813 L 66.037 125.813 L 66.037 132.29 L 64.983 132.29 Z  M 67.901 129.741 L 69.377 132.29 L 68.261 132.29 L 67.039 129.943 L 67.039 129.943 Q 67.013 129.943 66.982 129.948 L 66.982 129.948 L 66.982 129.948 Q 66.951 129.952 66.89 129.952 L 66.89 129.952 L 66.89 129.952 Q 66.828 129.952 66.71 129.952 L 66.71 129.952 L 66.71 129.952 Q 66.591 129.952 66.398 129.952 L 66.398 129.952 L 66.398 129.179 L 66.995 129.179 L 66.995 129.179 Q 67.189 129.179 67.382 129.113 L 67.382 129.113 L 67.382 129.113 Q 67.575 129.047 67.734 128.897 L 67.734 128.897 L 67.734 128.897 Q 67.892 128.748 67.988 128.48 L 67.988 128.48 L 67.988 128.48 Q 68.085 128.212 68.085 127.816 L 68.085 127.816 L 68.085 127.816 Q 68.085 127.658 68.041 127.452 L 68.041 127.452 L 68.041 127.452 Q 67.997 127.245 67.861 127.056 L 67.861 127.056 L 67.861 127.056 Q 67.725 126.867 67.479 126.74 L 67.479 126.74 L 67.479 126.74 Q 67.233 126.612 66.828 126.612 L 66.828 126.612 L 66.398 126.612 L 66.398 125.813 L 66.846 125.813 L 66.846 125.813 Q 67.259 125.813 67.663 125.944 L 67.663 125.944 L 67.663 125.944 Q 68.068 126.076 68.388 126.34 L 68.388 126.34 L 68.388 126.34 Q 68.709 126.604 68.907 126.977 L 68.907 126.977 L 68.907 126.977 Q 69.105 127.351 69.105 127.816 L 69.105 127.816 L 69.105 127.816 Q 69.105 128.52 68.779 129.012 L 68.779 129.012 L 68.779 129.012 Q 68.454 129.504 67.901 129.741 L 67.901 129.741 Z " fill-rule="evenodd" fill="rgb(0,0,0)"/><path d=" M 65.24 195.144 L 63.491 191.813 L 64.695 191.813 L 65.75 194.238 L 65.75 196.251 L 64.818 198.29 L 63.596 198.29 L 65.24 195.144 Z  M 67.165 191.813 L 68.369 191.813 L 66.62 195.144 L 68.263 198.29 L 67.041 198.29 L 66.11 196.066 L 66.11 194.063 L 67.165 191.813 Z " fill-rule="evenodd" fill="rgb(0,0,0)"/><path d=" M 10.076 272.29 L 10.076 265.813 L 11.13 265.813 L 11.13 272.29 L 10.076 272.29 Z  M 12.994 269.741 L 14.47 272.29 L 13.354 272.29 L 12.132 269.943 L 12.132 269.943 Q 12.106 269.943 12.075 269.948 L 12.075 269.948 L 12.075 269.948 Q 12.044 269.952 11.983 269.952 L 11.983 269.952 L 11.983 269.952 Q 11.921 269.952 11.803 269.952 L 11.803 269.952 L 11.803 269.952 Q 11.684 269.952 11.491 269.952 L 11.491 269.952 L 11.491 269.179 L 12.088 269.179 L 12.088 269.179 Q 12.282 269.179 12.475 269.113 L 12.475 269.113 L 12.475 269.113 Q 12.668 269.047 12.827 268.897 L 12.827 268.897 L 12.827 268.897 Q 12.985 268.748 13.082 268.48 L 13.082 268.48 L 13.082 268.48 Q 13.178 268.212 13.178 267.816 L 13.178 267.816 L 13.178 267.816 Q 13.178 267.658 13.134 267.452 L 13.134 267.452 L 13.134 267.452 Q 13.09 267.245 12.954 267.056 L 12.954 267.056 L 12.954 267.056 Q 12.818 266.867 12.572 266.74 L 12.572 266.74 L 12.572 266.74 Q 12.326 266.612 11.921 266.612 L 11.921 266.612 L 11.491 266.612 L 11.491 265.813 L 11.939 265.813 L 11.939 265.813 Q 12.352 265.813 12.756 265.944 L 12.756 265.944 L 12.756 265.944 Q 13.161 266.076 13.481 266.34 L 13.481 266.34 L 13.481 266.34 Q 13.802 266.604 14 266.977 L 14 266.977 L 14 266.977 Q 14.198 267.351 14.198 267.816 L 14.198 267.816 L 14.198 267.816 Q 14.198 268.52 13.873 269.012 L 13.873 269.012 L 13.873 269.012 Q 13.547 269.504 12.994 269.741 L 12.994 269.741 Z  M 15.92 272.29 L 15.92 265.813 L 16.993 265.813 L 16.993 272.29 L 15.92 272.29 Z  M 19.7 268.651 L 19.7 269.372 L 17.353 269.372 L 17.353 268.651 L 19.7 268.651 Z  M 17.353 272.29 L 17.353 271.49 L 19.972 271.49 L 19.972 272.29 L 17.353 272.29 Z  M 17.353 265.813 L 19.972 265.813 L 19.972 266.612 L 17.353 266.612 L 17.353 265.813 Z  M 24.393 266.814 L 24.393 266.814 L 24.393 266.814 Q 24.349 266.797 24.288 266.753 L 24.288 266.753 L 24.288 266.753 Q 24.226 266.709 24.112 266.669 L 24.112 266.669 L 24.112 266.669 Q 23.998 266.63 23.822 266.604 L 23.822 266.604 L 23.822 266.604 Q 23.646 266.577 23.374 266.595 L 23.374 266.595 L 23.374 265.707 L 23.374 265.707 Q 23.76 265.716 24.16 265.791 L 24.16 265.791 L 24.16 265.791 Q 24.56 265.865 24.806 266.023 L 24.806 266.023 L 24.806 266.023 Q 24.753 266.138 24.683 266.274 L 24.683 266.274 L 24.683 266.274 Q 24.613 266.41 24.551 266.529 L 24.551 266.529 L 24.551 266.529 Q 24.49 266.647 24.446 266.727 L 24.446 266.727 L 24.446 266.727 Q 24.402 266.806 24.393 266.814 Z  M 21.361 267.518 L 21.361 267.518 L 21.361 267.518 Q 21.361 267.131 21.493 266.823 L 21.493 266.823 L 21.493 266.823 Q 21.625 266.516 21.849 266.283 L 21.849 266.283 L 21.849 266.283 Q 22.073 266.05 22.376 265.914 L 22.376 265.914 L 22.376 265.914 Q 22.679 265.777 23.013 265.733 L 23.013 265.733 L 23.013 266.656 L 23.013 266.656 Q 22.732 266.753 22.547 266.995 L 22.547 266.995 L 22.547 266.995 Q 22.363 267.236 22.363 267.482 L 22.363 267.482 L 22.363 267.482 Q 22.363 267.825 22.547 268.036 L 22.547 268.036 L 22.547 268.036 Q 22.732 268.247 23.013 268.405 L 23.013 268.405 L 23.013 269.407 L 23.013 269.407 Q 22.723 269.267 22.433 269.104 L 22.433 269.104 L 22.433 269.104 Q 22.143 268.941 21.906 268.722 L 21.906 268.722 L 21.906 268.722 Q 21.668 268.502 21.515 268.212 L 21.515 268.212 L 21.515 268.212 Q 21.361 267.922 21.361 267.518 Z  M 21.317 271.859 L 21.501 271.104 L 21.501 271.104 Q 21.625 271.174 21.813 271.24 L 21.813 271.24 L 21.813 271.24 Q 22.002 271.306 22.205 271.363 L 22.205 271.363 L 22.205 271.363 Q 22.407 271.42 22.609 271.455 L 22.609 271.455 L 22.609 271.455 Q 22.811 271.49 22.987 271.49 L 22.987 271.49 L 23.013 271.49 L 23.013 272.325 L 22.996 272.325 L 22.996 272.325 Q 22.785 272.325 22.561 272.303 L 22.561 272.303 L 22.561 272.303 Q 22.336 272.281 22.108 272.229 L 22.108 272.229 L 22.108 272.229 Q 21.879 272.176 21.673 272.083 L 21.673 272.083 L 21.673 272.083 Q 21.466 271.991 21.317 271.859 L 21.317 271.859 Z  M 23.374 269.609 L 23.374 268.581 L 23.374 268.581 Q 23.664 268.713 23.967 268.862 L 23.967 268.862 L 23.967 268.862 Q 24.27 269.012 24.516 269.227 L 24.516 269.227 L 24.516 269.227 Q 24.762 269.442 24.92 269.75 L 24.92 269.75 L 24.92 269.75 Q 25.079 270.058 25.079 270.515 L 25.079 270.515 L 25.079 270.515 Q 25.079 270.831 24.96 271.13 L 24.96 271.13 L 24.96 271.13 Q 24.841 271.429 24.626 271.67 L 24.626 271.67 L 24.626 271.67 Q 24.411 271.912 24.094 272.079 L 24.094 272.079 L 24.094 272.079 Q 23.778 272.246 23.374 272.299 L 23.374 272.299 L 23.374 271.455 L 23.374 271.455 Q 24.094 271.279 24.094 270.497 L 24.094 270.497 L 24.094 270.497 Q 24.094 270.189 23.892 269.987 L 23.892 269.987 L 23.892 269.987 Q 23.69 269.785 23.374 269.609 L 23.374 269.609 Z  M 26.204 272.29 L 26.204 265.813 L 27.276 265.813 L 27.276 272.29 L 26.204 272.29 Z  M 29.983 268.651 L 29.983 269.372 L 27.636 269.372 L 27.636 268.651 L 29.983 268.651 Z  M 27.636 272.29 L 27.636 271.49 L 30.255 271.49 L 30.255 272.29 L 27.636 272.29 Z  M 27.636 265.813 L 30.255 265.813 L 30.255 266.612 L 27.636 266.612 L 27.636 265.813 Z  M 31.336 265.813 L 36.267 265.813 L 36.267 266.533 L 34.333 266.533 L 34.333 272.29 L 33.27 272.29 L 33.27 266.533 L 31.336 266.533 L 31.336 265.813 Z " fill-rule="evenodd" fill="rgb(0,0,0)"/><path d=" M 56.919 265.915 L 56.19 266.565 L 56.19 266.565 Q 55.987 266.337 55.759 266.223 L 55.759 266.223 L 55.759 266.223 Q 55.53 266.108 55.267 266.091 L 55.267 266.091 L 55.267 265.221 L 55.267 265.221 Q 56.251 265.265 56.919 265.915 L 56.919 265.915 Z  M 55.267 271.839 L 55.267 270.969 L 55.267 270.969 Q 55.53 270.942 55.763 270.828 L 55.763 270.828 L 55.763 270.828 Q 55.996 270.714 56.19 270.494 L 56.19 270.494 L 56.919 271.136 L 56.919 271.136 Q 56.585 271.461 56.172 271.637 L 56.172 271.637 L 56.172 271.637 Q 55.759 271.813 55.267 271.839 L 55.267 271.839 Z  M 52.419 268.525 L 52.419 268.525 L 52.419 268.525 Q 52.419 267.743 52.608 267.146 L 52.608 267.146 L 52.608 267.146 Q 52.797 266.548 53.131 266.135 L 53.131 266.135 L 53.131 266.135 Q 53.465 265.722 53.918 265.493 L 53.918 265.493 L 53.918 265.493 Q 54.37 265.265 54.906 265.221 L 54.906 265.221 L 54.906 266.1 L 54.906 266.1 Q 54.616 266.144 54.361 266.297 L 54.361 266.297 L 54.361 266.297 Q 54.107 266.451 53.913 266.741 L 53.913 266.741 L 53.913 266.741 Q 53.72 267.031 53.61 267.475 L 53.61 267.475 L 53.61 267.475 Q 53.5 267.919 53.491 268.525 L 53.491 268.525 L 53.491 268.525 Q 53.5 269.141 53.61 269.58 L 53.61 269.58 L 53.61 269.58 Q 53.72 270.02 53.913 270.318 L 53.913 270.318 L 53.913 270.318 Q 54.107 270.617 54.366 270.775 L 54.366 270.775 L 54.366 270.775 Q 54.625 270.934 54.906 270.969 L 54.906 270.969 L 54.906 271.83 L 54.906 271.83 Q 54.37 271.795 53.918 271.566 L 53.918 271.566 L 53.918 271.566 Q 53.465 271.338 53.131 270.925 L 53.131 270.925 L 53.131 270.925 Q 52.797 270.512 52.608 269.91 L 52.608 269.91 L 52.608 269.91 Q 52.419 269.308 52.419 268.525 Z  M 58.44 265.317 L 59.512 265.317 L 59.512 270.995 L 62.491 270.995 L 62.491 271.795 L 58.44 271.795 L 58.44 265.317 Z  M 63.432 268.525 L 63.432 268.525 L 63.432 268.525 Q 63.432 267.743 63.621 267.141 L 63.621 267.141 L 63.621 267.141 Q 63.81 266.539 64.148 266.122 L 64.148 266.122 L 64.148 266.122 Q 64.486 265.704 64.948 265.48 L 64.948 265.48 L 64.948 265.48 Q 65.409 265.256 65.954 265.221 L 65.954 265.221 L 65.954 266.1 L 65.954 266.1 Q 65.655 266.135 65.392 266.284 L 65.392 266.284 L 65.392 266.284 Q 65.128 266.434 64.935 266.724 L 64.935 266.724 L 64.935 266.724 Q 64.741 267.014 64.627 267.462 L 64.627 267.462 L 64.627 267.462 Q 64.513 267.91 64.504 268.525 L 64.504 268.525 L 64.504 268.525 Q 64.513 269.149 64.627 269.593 L 64.627 269.593 L 64.627 269.593 Q 64.741 270.037 64.939 270.336 L 64.939 270.336 L 64.939 270.336 Q 65.137 270.635 65.4 270.789 L 65.4 270.789 L 65.4 270.789 Q 65.664 270.942 65.954 270.969 L 65.954 270.969 L 65.954 271.839 L 65.954 271.839 Q 65.418 271.804 64.952 271.58 L 64.952 271.58 L 64.952 271.58 Q 64.486 271.355 64.148 270.938 L 64.148 270.938 L 64.148 270.938 Q 63.81 270.521 63.621 269.914 L 63.621 269.914 L 63.621 269.914 Q 63.432 269.308 63.432 268.525 Z  M 66.306 266.091 L 66.306 265.221 L 66.306 265.221 Q 66.842 265.247 67.303 265.476 L 67.303 265.476 L 67.303 265.476 Q 67.765 265.704 68.103 266.122 L 68.103 266.122 L 68.103 266.122 Q 68.441 266.539 68.635 267.141 L 68.635 267.141 L 68.635 267.141 Q 68.828 267.743 68.828 268.525 L 68.828 268.525 L 68.828 268.525 Q 68.828 269.308 68.635 269.914 L 68.635 269.914 L 68.635 269.914 Q 68.441 270.521 68.103 270.938 L 68.103 270.938 L 68.103 270.938 Q 67.765 271.355 67.308 271.58 L 67.308 271.58 L 67.308 271.58 Q 66.851 271.804 66.306 271.839 L 66.306 271.839 L 66.306 270.969 L 66.306 270.969 Q 66.605 270.934 66.868 270.78 L 66.868 270.78 L 66.868 270.78 Q 67.132 270.626 67.325 270.332 L 67.325 270.332 L 67.325 270.332 Q 67.519 270.037 67.633 269.593 L 67.633 269.593 L 67.633 269.593 Q 67.747 269.149 67.756 268.525 L 67.756 268.525 L 67.756 268.525 Q 67.747 267.901 67.633 267.458 L 67.633 267.458 L 67.633 267.458 Q 67.519 267.014 67.321 266.719 L 67.321 266.719 L 67.321 266.719 Q 67.123 266.425 66.859 266.271 L 66.859 266.271 L 66.859 266.271 Q 66.596 266.117 66.306 266.091 L 66.306 266.091 Z  M 74.699 265.915 L 73.97 266.565 L 73.97 266.565 Q 73.768 266.337 73.539 266.223 L 73.539 266.223 L 73.539 266.223 Q 73.311 266.108 73.047 266.091 L 73.047 266.091 L 73.047 265.221 L 73.047 265.221 Q 74.031 265.265 74.699 265.915 L 74.699 265.915 Z  M 73.047 271.839 L 73.047 270.969 L 73.047 270.969 Q 73.311 270.942 73.544 270.828 L 73.544 270.828 L 73.544 270.828 Q 73.776 270.714 73.97 270.494 L 73.97 270.494 L 74.699 271.136 L 74.699 271.136 Q 74.365 271.461 73.952 271.637 L 73.952 271.637 L 73.952 271.637 Q 73.539 271.813 73.047 271.839 L 73.047 271.839 Z  M 70.199 268.525 L 70.199 268.525 L 70.199 268.525 Q 70.199 267.743 70.388 267.146 L 70.388 267.146 L 70.388 267.146 Q 70.577 266.548 70.911 266.135 L 70.911 266.135 L 70.911 266.135 Q 71.245 265.722 71.698 265.493 L 71.698 265.493 L 71.698 265.493 Q 72.15 265.265 72.687 265.221 L 72.687 265.221 L 72.687 266.1 L 72.687 266.1 Q 72.397 266.144 72.142 266.297 L 72.142 266.297 L 72.142 266.297 Q 71.887 266.451 71.693 266.741 L 71.693 266.741 L 71.693 266.741 Q 71.5 267.031 71.39 267.475 L 71.39 267.475 L 71.39 267.475 Q 71.28 267.919 71.272 268.525 L 71.272 268.525 L 71.272 268.525 Q 71.28 269.141 71.39 269.58 L 71.39 269.58 L 71.39 269.58 Q 71.5 270.02 71.693 270.318 L 71.693 270.318 L 71.693 270.318 Q 71.887 270.617 72.146 270.775 L 72.146 270.775 L 72.146 270.775 Q 72.405 270.934 72.687 270.969 L 72.687 270.969 L 72.687 271.83 L 72.687 271.83 Q 72.15 271.795 71.698 271.566 L 71.698 271.566 L 71.698 271.566 Q 71.245 271.338 70.911 270.925 L 70.911 270.925 L 70.911 270.925 Q 70.577 270.512 70.388 269.91 L 70.388 269.91 L 70.388 269.91 Q 70.199 269.308 70.199 268.525 Z  M 77.292 271.795 L 76.22 271.795 L 76.22 265.317 L 77.292 265.317 L 77.292 271.795 Z  M 80.43 265.317 L 78.356 268.648 L 80.606 271.795 L 79.384 271.795 L 77.652 269.246 L 77.652 267.963 L 79.226 265.317 L 80.43 265.317 Z  M 58.576 260.29 L 58.576 253.813 L 59.648 253.813 L 59.648 260.29 L 58.576 260.29 Z  M 62.355 256.651 L 62.355 257.372 L 60.008 257.372 L 60.008 256.651 L 62.355 256.651 Z  M 60.008 260.29 L 60.008 259.49 L 62.628 259.49 L 62.628 260.29 L 60.008 260.29 Z  M 60.008 253.813 L 62.628 253.813 L 62.628 254.612 L 60.008 254.612 L 60.008 253.813 Z  M 65.66 257.144 L 63.911 253.813 L 65.115 253.813 L 66.17 256.238 L 66.17 258.251 L 65.238 260.29 L 64.016 260.29 L 65.66 257.144 Z  M 67.585 253.813 L 68.789 253.813 L 67.04 257.144 L 68.683 260.29 L 67.462 260.29 L 66.53 258.066 L 66.53 256.063 L 67.585 253.813 Z  M 69.879 253.813 L 74.809 253.813 L 74.809 254.533 L 72.876 254.533 L 72.876 260.29 L 71.812 260.29 L 71.812 254.533 L 69.879 254.533 L 69.879 253.813 Z " fill-rule="evenodd" fill="rgb(0,0,0)"/><path d=" M 36.177 312.021 L 36.177 312.021 L 36.177 312.021 Q 36.177 311.238 36.366 310.636 L 36.366 310.636 L 36.366 310.636 Q 36.555 310.034 36.893 309.617 L 36.893 309.617 L 36.893 309.617 Q 37.231 309.199 37.693 308.975 L 37.693 308.975 L 37.693 308.975 Q 38.154 308.751 38.699 308.716 L 38.699 308.716 L 38.699 309.595 L 38.699 309.595 Q 38.4 309.63 38.137 309.779 L 38.137 309.779 L 38.137 309.779 Q 37.873 309.929 37.68 310.219 L 37.68 310.219 L 37.68 310.219 Q 37.486 310.509 37.372 310.957 L 37.372 310.957 L 37.372 310.957 Q 37.258 311.405 37.249 312.021 L 37.249 312.021 L 37.249 312.021 Q 37.258 312.645 37.372 313.088 L 37.372 313.088 L 37.372 313.088 Q 37.486 313.532 37.684 313.831 L 37.684 313.831 L 37.684 313.831 Q 37.882 314.13 38.146 314.284 L 38.146 314.284 L 38.146 314.284 Q 38.409 314.438 38.699 314.464 L 38.699 314.464 L 38.699 315.334 L 38.699 315.334 Q 38.163 315.299 37.697 315.075 L 37.697 315.075 L 37.697 315.075 Q 37.231 314.851 36.893 314.433 L 36.893 314.433 L 36.893 314.433 Q 36.555 314.016 36.366 313.409 L 36.366 313.409 L 36.366 313.409 Q 36.177 312.803 36.177 312.021 Z  M 39.051 309.586 L 39.051 308.716 L 39.051 308.716 Q 39.587 308.742 40.048 308.971 L 40.048 308.971 L 40.048 308.971 Q 40.51 309.199 40.848 309.617 L 40.848 309.617 L 40.848 309.617 Q 41.187 310.034 41.38 310.636 L 41.38 310.636 L 41.38 310.636 Q 41.573 311.238 41.573 312.021 L 41.573 312.021 L 41.573 312.021 Q 41.573 312.803 41.38 313.409 L 41.38 313.409 L 41.38 313.409 Q 41.187 314.016 40.848 314.433 L 40.848 314.433 L 40.848 314.433 Q 40.51 314.851 40.053 315.075 L 40.053 315.075 L 40.053 315.075 Q 39.596 315.299 39.051 315.334 L 39.051 315.334 L 39.051 314.464 L 39.051 314.464 Q 39.35 314.429 39.613 314.275 L 39.613 314.275 L 39.613 314.275 Q 39.877 314.121 40.07 313.827 L 40.07 313.827 L 40.07 313.827 Q 40.264 313.532 40.378 313.088 L 40.378 313.088 L 40.378 313.088 Q 40.492 312.645 40.501 312.021 L 40.501 312.021 L 40.501 312.021 Q 40.492 311.396 40.378 310.953 L 40.378 310.953 L 40.378 310.953 Q 40.264 310.509 40.066 310.214 L 40.066 310.214 L 40.066 310.214 Q 39.868 309.92 39.604 309.766 L 39.604 309.766 L 39.604 309.766 Q 39.341 309.612 39.051 309.586 L 39.051 309.586 Z  M 44.043 308.813 L 44.043 311.915 L 44.043 311.915 Q 44.043 312.592 44.131 313.062 L 44.131 313.062 L 44.131 313.062 Q 44.219 313.532 44.386 313.835 L 44.386 313.835 L 44.386 313.835 Q 44.553 314.139 44.786 314.288 L 44.786 314.288 L 44.786 314.288 Q 45.019 314.438 45.309 314.464 L 45.309 314.464 L 45.309 315.334 L 45.309 315.334 Q 44.772 315.299 44.337 315.075 L 44.337 315.075 L 44.337 315.075 Q 43.902 314.851 43.604 314.433 L 43.604 314.433 L 43.604 314.433 Q 43.305 314.016 43.138 313.409 L 43.138 313.409 L 43.138 313.409 Q 42.971 312.803 42.971 312.021 L 42.971 312.021 L 42.971 308.813 L 44.043 308.813 Z  M 46.943 308.813 L 48.007 308.813 L 48.007 312.021 L 48.007 312.021 Q 48.007 312.803 47.84 313.409 L 47.84 313.409 L 47.84 313.409 Q 47.673 314.016 47.37 314.433 L 47.37 314.433 L 47.37 314.433 Q 47.066 314.851 46.636 315.075 L 46.636 315.075 L 46.636 315.075 Q 46.205 315.299 45.669 315.334 L 45.669 315.334 L 45.669 314.464 L 45.669 314.464 Q 45.959 314.429 46.192 314.284 L 46.192 314.284 L 46.192 314.284 Q 46.425 314.139 46.592 313.84 L 46.592 313.84 L 46.592 313.84 Q 46.759 313.541 46.851 313.071 L 46.851 313.071 L 46.851 313.071 Q 46.943 312.601 46.943 311.915 L 46.943 311.915 L 46.943 308.813 Z  M 49.176 308.813 L 54.106 308.813 L 54.106 309.533 L 52.173 309.533 L 52.173 315.29 L 51.109 315.29 L 51.109 309.533 L 49.176 309.533 L 49.176 308.813 Z " fill-rule="evenodd" fill="rgb(0,0,0)"/><line x1="22.75" y1="232" x2="22.75" y2="261" vector-effect="non-scaling-stroke" stroke-width="2" stroke="rgb(0,0,0)" stroke-linejoin="miter" stroke-linecap="square" stroke-miterlimit="3"/><path d=" M 73.289 34.574 L 73.289 34.574 L 73.289 34.574 Q 73.289 34.916 73.214 35.25 L 73.214 35.25 L 73.214 35.25 Q 73.139 35.583 73.016 35.899 L 73.016 35.899 L 73.016 35.899 Q 72.894 36.215 72.737 36.503 L 72.737 36.503 L 72.737 36.503 Q 72.58 36.791 72.414 37.043 L 72.414 37.043 L 72.414 37.043 Q 72.248 37.294 72.091 37.498 L 72.091 37.498 L 72.091 37.498 Q 71.934 37.703 71.808 37.849 L 71.808 37.849 L 70.551 37.849 L 70.872 37.528 L 70.872 37.528 Q 70.876 37.524 70.988 37.404 L 70.988 37.404 L 70.988 37.404 Q 71.099 37.284 71.267 37.074 L 71.267 37.074 L 71.267 37.074 Q 71.435 36.865 71.628 36.582 L 71.628 36.582 L 71.628 36.582 Q 71.822 36.299 71.988 35.972 L 71.988 35.972 L 71.988 35.972 Q 72.154 35.646 72.264 35.288 L 72.264 35.288 L 72.264 35.288 Q 72.374 34.93 72.374 34.574 L 72.374 34.574 L 72.374 34.574 Q 72.374 34.218 72.264 33.86 L 72.264 33.86 L 72.264 33.86 Q 72.154 33.502 71.988 33.176 L 71.988 33.176 L 71.988 33.176 Q 71.822 32.849 71.628 32.566 L 71.628 32.566 L 71.628 32.566 Q 71.435 32.284 71.267 32.074 L 71.267 32.074 L 71.267 32.074 Q 71.099 31.865 70.988 31.744 L 70.988 31.744 L 70.988 31.744 Q 70.876 31.624 70.872 31.62 L 70.872 31.62 L 70.551 31.299 L 71.808 31.299 L 71.808 31.299 Q 71.934 31.446 72.091 31.65 L 72.091 31.65 L 72.091 31.65 Q 72.248 31.854 72.414 32.105 L 72.414 32.105 L 72.414 32.105 Q 72.58 32.357 72.737 32.645 L 72.737 32.645 L 72.737 32.645 Q 72.894 32.933 73.016 33.249 L 73.016 33.249 L 73.016 33.249 Q 73.139 33.565 73.214 33.898 L 73.214 33.898 L 73.214 33.898 Q 73.289 34.232 73.289 34.574 Z  M 52.953 31.299 L 54.21 31.299 L 53.889 31.62 L 53.889 31.62 Q 53.886 31.624 53.772 31.744 L 53.772 31.744 L 53.772 31.744 Q 53.659 31.865 53.491 32.074 L 53.491 32.074 L 53.491 32.074 Q 53.324 32.284 53.13 32.566 L 53.13 32.566 L 53.13 32.566 Q 52.936 32.849 52.768 33.176 L 52.768 33.176 L 52.768 33.176 Q 52.601 33.502 52.491 33.86 L 52.491 33.86 L 52.491 33.86 Q 52.381 34.218 52.381 34.574 L 52.381 34.574 L 52.381 34.574 Q 52.381 34.934 52.491 35.29 L 52.491 35.29 L 52.491 35.29 Q 52.601 35.646 52.768 35.972 L 52.768 35.972 L 52.768 35.972 Q 52.936 36.299 53.13 36.582 L 53.13 36.582 L 53.13 36.582 Q 53.324 36.865 53.491 37.074 L 53.491 37.074 L 53.491 37.074 Q 53.659 37.284 53.772 37.404 L 53.772 37.404 L 53.772 37.404 Q 53.886 37.524 53.889 37.528 L 53.889 37.528 L 54.21 37.849 L 52.953 37.849 L 52.953 37.849 Q 52.828 37.703 52.669 37.498 L 52.669 37.498 L 52.669 37.498 Q 52.51 37.294 52.346 37.043 L 52.346 37.043 L 52.346 37.043 Q 52.182 36.791 52.025 36.503 L 52.025 36.503 L 52.025 36.503 Q 51.867 36.215 51.745 35.899 L 51.745 35.899 L 51.745 35.899 Q 51.623 35.583 51.548 35.25 L 51.548 35.25 L 51.548 35.25 Q 51.473 34.916 51.473 34.574 L 51.473 34.574 L 51.473 34.574 Q 51.473 34.232 51.548 33.898 L 51.548 33.898 L 51.548 33.898 Q 51.623 33.565 51.745 33.249 L 51.745 33.249 L 51.745 33.249 Q 51.867 32.933 52.025 32.645 L 52.025 32.645 L 52.025 32.645 Q 52.182 32.357 52.346 32.105 L 52.346 32.105 L 52.346 32.105 Q 52.51 31.854 52.669 31.65 L 52.669 31.65 L 52.669 31.65 Q 52.828 31.446 52.953 31.299 L 52.953 31.299 Z  M 56.239 32.071 L 56.239 37.078 L 55.328 37.078 L 55.328 32.978 L 54.507 32.978 L 54.507 32.071 L 56.239 32.071 Z  M 60.474 34.166 L 60.474 34.983 L 57.199 34.983 L 57.199 34.166 L 60.474 34.166 Z  M 64.368 33.303 L 65.618 33.303 L 63.987 35.084 L 65.824 37.078 L 64.574 37.078 L 63.365 35.761 L 62.157 37.078 L 60.904 37.078 L 62.737 35.077 L 61.113 33.303 L 62.356 33.303 L 63.358 34.396 L 64.368 33.303 Z  M 41.41 33.303 L 41.41 34.211 L 39.367 34.211 L 39.367 34.211 Q 39.182 34.211 39.088 34.303 L 39.088 34.303 L 39.088 34.303 Q 38.994 34.396 38.994 34.574 L 38.994 34.574 L 38.994 37.078 L 38.086 37.078 L 38.086 34.574 L 38.086 34.574 Q 38.086 34.34 38.145 34.155 L 38.145 34.155 L 38.145 34.155 Q 38.205 33.97 38.304 33.829 L 38.304 33.829 L 38.304 33.829 Q 38.404 33.687 38.533 33.588 L 38.533 33.588 L 38.533 33.588 Q 38.662 33.488 38.804 33.425 L 38.804 33.425 L 38.804 33.425 Q 38.945 33.362 39.09 33.333 L 39.09 33.333 L 39.09 33.333 Q 39.235 33.303 39.36 33.303 L 39.36 33.303 L 41.41 33.303 Z  M 45.069 33.303 L 46.319 33.303 L 44.689 35.084 L 46.525 37.078 L 45.275 37.078 L 44.067 35.761 L 42.859 37.078 L 41.606 37.078 L 43.439 35.077 L 41.815 33.303 L 43.058 33.303 L 44.06 34.396 L 45.069 33.303 Z  M 34.877 33.345 L 34.877 34.166 L 31.602 34.166 L 31.602 33.345 L 34.877 33.345 Z  M 34.877 34.983 L 34.877 35.803 L 31.602 35.803 L 31.602 34.983 L 34.877 34.983 Z  M 20.342 33.303 L 21.592 33.303 L 19.961 35.084 L 21.798 37.078 L 20.548 37.078 L 19.339 35.761 L 18.131 37.078 L 16.878 37.078 L 18.711 35.077 L 17.087 33.303 L 18.33 33.303 L 19.332 34.396 L 20.342 33.303 Z " fill-rule="evenodd" fill="rgb(0,0,0)"/><path d=" M 25.42 36.244 L 25.42 37.641 L 24.814 37.641 L 24.814 36.244 L 24.814 36.244 Q 24.814 36.126 24.774 36.031 L 24.774 36.031 L 24.774 36.031 Q 24.733 35.937 24.663 35.87 L 24.663 35.87 L 24.663 35.87 Q 24.593 35.802 24.499 35.766 L 24.499 35.766 L 24.499 35.766 Q 24.405 35.73 24.295 35.73 L 24.295 35.73 L 23.236 35.73 L 23.236 37.641 L 22.631 37.641 L 22.631 35.425 L 22.631 35.425 Q 22.631 35.362 22.654 35.308 L 22.654 35.308 L 22.654 35.308 Q 22.677 35.253 22.719 35.212 L 22.719 35.212 L 22.719 35.212 Q 22.761 35.171 22.817 35.148 L 22.817 35.148 L 22.817 35.148 Q 22.873 35.125 22.936 35.125 L 22.936 35.125 L 24.3 35.125 L 24.3 35.125 Q 24.414 35.125 24.541 35.15 L 24.541 35.15 L 24.541 35.15 Q 24.668 35.176 24.792 35.233 L 24.792 35.233 L 24.792 35.233 Q 24.917 35.29 25.03 35.377 L 25.03 35.377 L 25.03 35.377 Q 25.143 35.465 25.23 35.589 L 25.23 35.589 L 25.23 35.589 Q 25.317 35.714 25.368 35.877 L 25.368 35.877 L 25.368 35.877 Q 25.42 36.04 25.42 36.244 L 25.42 36.244 Z  M 28.043 35.7 L 28.043 36.244 L 27.224 36.244 L 27.224 37.064 L 26.681 37.064 L 26.681 36.244 L 25.859 36.244 L 25.859 35.7 L 26.681 35.7 L 26.681 34.88 L 27.224 34.88 L 27.224 35.7 L 28.043 35.7 Z  M 29.556 34.303 L 29.556 37.641 L 28.948 37.641 L 28.948 34.908 L 28.401 34.908 L 28.401 34.303 L 29.556 34.303 Z " fill-rule="evenodd" fill="rgb(0,0,0)"/><path d=" M 50.194 36.244 L 50.194 37.641 L 49.589 37.641 L 49.589 36.244 L 49.589 36.244 Q 49.589 36.126 49.548 36.031 L 49.548 36.031 L 49.548 36.031 Q 49.507 35.937 49.437 35.87 L 49.437 35.87 L 49.437 35.87 Q 49.367 35.802 49.273 35.766 L 49.273 35.766 L 49.273 35.766 Q 49.179 35.73 49.07 35.73 L 49.07 35.73 L 48.01 35.73 L 48.01 37.641 L 47.405 37.641 L 47.405 35.425 L 47.405 35.425 Q 47.405 35.362 47.428 35.308 L 47.428 35.308 L 47.428 35.308 Q 47.452 35.253 47.494 35.212 L 47.494 35.212 L 47.494 35.212 Q 47.536 35.171 47.591 35.148 L 47.591 35.148 L 47.591 35.148 Q 47.647 35.125 47.71 35.125 L 47.71 35.125 L 49.074 35.125 L 49.074 35.125 Q 49.188 35.125 49.315 35.15 L 49.315 35.15 L 49.315 35.15 Q 49.442 35.176 49.567 35.233 L 49.567 35.233 L 49.567 35.233 Q 49.691 35.29 49.804 35.377 L 49.804 35.377 L 49.804 35.377 Q 49.917 35.465 50.004 35.589 L 50.004 35.589 L 50.004 35.589 Q 50.091 35.714 50.143 35.877 L 50.143 35.877 L 50.143 35.877 Q 50.194 36.04 50.194 36.244 L 50.194 36.244 Z " fill="rgb(0,0,0)"/><path d=" M 69.263 36.244 L 69.263 37.641 L 68.658 37.641 L 68.658 36.244 L 68.658 36.244 Q 68.658 36.126 68.617 36.031 L 68.617 36.031 L 68.617 36.031 Q 68.576 35.937 68.506 35.87 L 68.506 35.87 L 68.506 35.87 Q 68.436 35.802 68.342 35.766 L 68.342 35.766 L 68.342 35.766 Q 68.248 35.73 68.138 35.73 L 68.138 35.73 L 67.079 35.73 L 67.079 37.641 L 66.474 37.641 L 66.474 35.425 L 66.474 35.425 Q 66.474 35.362 66.497 35.308 L 66.497 35.308 L 66.497 35.308 Q 66.521 35.253 66.563 35.212 L 66.563 35.212 L 66.563 35.212 Q 66.605 35.171 66.66 35.148 L 66.66 35.148 L 66.66 35.148 Q 66.716 35.125 66.779 35.125 L 66.779 35.125 L 68.143 35.125 L 68.143 35.125 Q 68.257 35.125 68.384 35.15 L 68.384 35.15 L 68.384 35.15 Q 68.511 35.176 68.635 35.233 L 68.635 35.233 L 68.635 35.233 Q 68.76 35.29 68.873 35.377 L 68.873 35.377 L 68.873 35.377 Q 68.986 35.465 69.073 35.589 L 69.073 35.589 L 69.073 35.589 Q 69.16 35.714 69.212 35.877 L 69.212 35.877 L 69.212 35.877 Q 69.263 36.04 69.263 36.244 L 69.263 36.244 Z " fill="rgb(0,0,0)"/><path d=" M 72.754 197.204 L 72.754 197.749 L 72.754 197.749 Q 72.754 197.954 72.701 198.136 L 72.701 198.136 L 72.701 198.136 Q 72.649 198.319 72.554 198.475 L 72.554 198.475 L 72.554 198.475 Q 72.458 198.631 72.328 198.754 L 72.328 198.754 L 72.328 198.754 Q 72.197 198.878 72.043 198.965 L 72.043 198.965 L 72.043 198.965 Q 71.888 199.052 71.713 199.099 L 71.713 199.099 L 71.713 199.099 Q 71.539 199.145 71.357 199.145 L 71.357 199.145 L 70.265 199.145 L 70.265 199.145 Q 70.081 199.145 69.907 199.099 L 69.907 199.099 L 69.907 199.099 Q 69.732 199.052 69.578 198.965 L 69.578 198.965 L 69.578 198.965 Q 69.423 198.878 69.292 198.754 L 69.292 198.754 L 69.292 198.754 Q 69.162 198.631 69.068 198.475 L 69.068 198.475 L 69.068 198.475 Q 68.973 198.319 68.921 198.136 L 68.921 198.136 L 68.921 198.136 Q 68.869 197.954 68.869 197.749 L 68.869 197.749 L 68.869 197.204 L 68.869 197.204 Q 68.869 196.897 68.984 196.641 L 68.984 196.641 L 68.984 196.641 Q 69.099 196.385 69.292 196.2 L 69.292 196.2 L 69.292 196.2 Q 69.486 196.015 69.738 195.911 L 69.738 195.911 L 69.738 195.911 Q 69.991 195.807 70.265 195.807 L 70.265 195.807 L 71.357 195.807 L 71.357 195.807 Q 71.539 195.807 71.713 195.854 L 71.713 195.854 L 71.713 195.854 Q 71.888 195.901 72.043 195.988 L 72.043 195.988 L 72.043 195.988 Q 72.197 196.075 72.328 196.199 L 72.328 196.199 L 72.328 196.199 Q 72.458 196.322 72.554 196.478 L 72.554 196.478 L 72.554 196.478 Q 72.649 196.634 72.701 196.817 L 72.701 196.817 L 72.701 196.817 Q 72.754 196.999 72.754 197.204 L 72.754 197.204 Z  M 72.144 197.749 L 72.144 197.204 L 72.144 197.204 Q 72.144 197.025 72.079 196.878 L 72.079 196.878 L 72.079 196.878 Q 72.014 196.732 71.905 196.627 L 71.905 196.627 L 71.905 196.627 Q 71.797 196.522 71.655 196.466 L 71.655 196.466 L 71.655 196.466 Q 71.513 196.41 71.357 196.413 L 71.357 196.413 L 70.265 196.413 L 70.265 196.413 Q 70.114 196.41 69.971 196.465 L 69.971 196.465 L 69.971 196.465 Q 69.828 196.52 69.717 196.623 L 69.717 196.623 L 69.717 196.623 Q 69.607 196.727 69.54 196.875 L 69.54 196.875 L 69.54 196.875 Q 69.474 197.023 69.474 197.204 L 69.474 197.204 L 69.474 197.749 L 69.474 197.749 Q 69.474 197.93 69.539 198.077 L 69.539 198.077 L 69.539 198.077 Q 69.604 198.224 69.714 198.327 L 69.714 198.327 L 69.714 198.327 Q 69.823 198.431 69.966 198.487 L 69.966 198.487 L 69.966 198.487 Q 70.109 198.543 70.265 198.54 L 70.265 198.54 L 71.357 198.54 L 71.357 198.54 Q 71.536 198.54 71.682 198.481 L 71.682 198.481 L 71.682 198.481 Q 71.827 198.422 71.93 198.317 L 71.93 198.317 L 71.93 198.317 Q 72.032 198.212 72.088 198.067 L 72.088 198.067 L 72.088 198.067 Q 72.144 197.921 72.144 197.749 L 72.144 197.749 Z  M 71.881 196.762 L 71.881 196.762 L 71.881 196.762 Q 71.916 196.813 71.927 196.872 L 71.927 196.872 L 71.927 196.872 Q 71.939 196.932 71.927 196.989 L 71.927 196.989 L 71.927 196.989 Q 71.916 197.046 71.882 197.096 L 71.882 197.096 L 71.882 197.096 Q 71.848 197.146 71.795 197.181 L 71.795 197.181 L 70.161 198.273 L 70.161 198.273 Q 70.121 198.303 70.079 198.314 L 70.079 198.314 L 70.079 198.314 Q 70.037 198.326 69.993 198.326 L 69.993 198.326 L 69.993 198.326 Q 69.919 198.326 69.851 198.291 L 69.851 198.291 L 69.851 198.291 Q 69.784 198.256 69.742 198.191 L 69.742 198.191 L 69.742 198.191 Q 69.707 198.14 69.695 198.081 L 69.695 198.081 L 69.695 198.081 Q 69.683 198.021 69.694 197.964 L 69.694 197.964 L 69.694 197.964 Q 69.704 197.907 69.737 197.857 L 69.737 197.857 L 69.737 197.857 Q 69.77 197.807 69.823 197.772 L 69.823 197.772 L 71.462 196.68 L 71.462 196.68 Q 71.513 196.645 71.572 196.634 L 71.572 196.634 L 71.572 196.634 Q 71.632 196.622 71.689 196.634 L 71.689 196.634 L 71.689 196.634 Q 71.746 196.645 71.796 196.678 L 71.796 196.678 L 71.796 196.678 Q 71.846 196.711 71.881 196.762 Z " fill-rule="evenodd" fill="rgb(0,0,0)"/><path d=" M 16.511 24.667 L 16.511 26.317 L 8.983 26.317 L 8.983 26.317 Q 8.805 26.317 8.653 26.253 L 8.653 26.253 L 8.653 26.253 Q 8.501 26.19 8.39 26.079 L 8.39 26.079 L 8.39 26.079 Q 8.279 25.968 8.215 25.815 L 8.215 25.815 L 8.215 25.815 Q 8.152 25.663 8.152 25.485 L 8.152 25.485 L 8.152 17.214 L 9.802 17.214 L 9.802 24.667 L 16.511 24.667 Z  M 25.005 21.766 L 25.005 24 L 25.005 24 Q 25.005 24.425 24.897 24.765 L 24.897 24.765 L 24.897 24.765 Q 24.789 25.105 24.611 25.362 L 24.611 25.362 L 24.611 25.362 Q 24.433 25.619 24.198 25.8 L 24.198 25.8 L 24.198 25.8 Q 23.964 25.981 23.707 26.095 L 23.707 26.095 L 23.707 26.095 Q 23.449 26.209 23.186 26.263 L 23.186 26.263 L 23.186 26.263 Q 22.923 26.317 22.688 26.317 L 22.688 26.317 L 19.711 26.317 L 19.711 26.317 Q 19.368 26.317 18.962 26.196 L 18.962 26.196 L 18.962 26.196 Q 18.555 26.076 18.209 25.8 L 18.209 25.8 L 18.209 25.8 Q 17.864 25.523 17.632 25.082 L 17.632 25.082 L 17.632 25.082 Q 17.4 24.641 17.4 24 L 17.4 24 L 17.4 21.766 L 17.4 21.766 Q 17.4 21.131 17.632 20.69 L 17.632 20.69 L 17.632 20.69 Q 17.864 20.249 18.209 19.972 L 18.209 19.972 L 18.209 19.972 Q 18.555 19.696 18.962 19.576 L 18.962 19.576 L 18.962 19.576 Q 19.368 19.455 19.711 19.455 L 19.711 19.455 L 22.688 19.455 L 22.688 19.455 Q 23.323 19.455 23.767 19.684 L 23.767 19.684 L 23.767 19.684 Q 24.211 19.912 24.484 20.258 L 24.484 20.258 L 24.484 20.258 Q 24.757 20.604 24.881 21.01 L 24.881 21.01 L 24.881 21.01 Q 25.005 21.417 25.005 21.766 L 25.005 21.766 Z  M 23.354 24 L 23.354 21.778 L 23.354 21.778 Q 23.354 21.436 23.183 21.271 L 23.183 21.271 L 23.183 21.271 Q 23.011 21.106 22.688 21.106 L 22.688 21.106 L 19.723 21.106 L 19.723 21.106 Q 19.393 21.106 19.222 21.274 L 19.222 21.274 L 19.222 21.274 Q 19.051 21.442 19.051 21.766 L 19.051 21.766 L 19.051 24 L 19.051 24 Q 19.051 24.324 19.222 24.495 L 19.222 24.495 L 19.222 24.495 Q 19.393 24.667 19.723 24.667 L 19.723 24.667 L 22.688 24.667 L 22.688 24.667 Q 23.024 24.667 23.189 24.495 L 23.189 24.495 L 23.189 24.495 Q 23.354 24.324 23.354 24 L 23.354 24 Z  M 33.872 21.766 L 33.872 26.977 L 33.872 26.977 Q 33.872 27.402 33.764 27.742 L 33.764 27.742 L 33.764 27.742 Q 33.656 28.082 33.479 28.339 L 33.479 28.339 L 33.479 28.339 Q 33.301 28.596 33.066 28.777 L 33.066 28.777 L 33.066 28.777 Q 32.831 28.958 32.574 29.072 L 32.574 29.072 L 32.574 29.072 Q 32.317 29.186 32.054 29.24 L 32.054 29.24 L 32.054 29.24 Q 31.79 29.294 31.555 29.294 L 31.555 29.294 L 28.578 29.294 L 28.578 27.644 L 31.555 27.644 L 31.555 27.644 Q 31.892 27.644 32.057 27.472 L 32.057 27.472 L 32.057 27.472 Q 32.222 27.301 32.222 26.977 L 32.222 26.977 L 32.222 21.766 L 32.222 21.766 Q 32.222 21.442 32.057 21.274 L 32.057 21.274 L 32.057 21.274 Q 31.892 21.106 31.555 21.106 L 31.555 21.106 L 28.578 21.106 L 28.578 21.106 Q 28.274 21.106 28.096 21.293 L 28.096 21.293 L 28.096 21.293 Q 27.918 21.48 27.918 21.766 L 27.918 21.766 L 27.918 24 L 27.918 24 Q 27.918 24.324 28.09 24.495 L 28.09 24.495 L 28.09 24.495 Q 28.261 24.667 28.591 24.667 L 28.591 24.667 L 31.555 24.667 L 31.555 26.317 L 28.578 26.317 L 28.578 26.317 Q 28.344 26.317 28.083 26.263 L 28.083 26.263 L 28.083 26.263 Q 27.823 26.209 27.566 26.095 L 27.566 26.095 L 27.566 26.095 Q 27.309 25.981 27.074 25.8 L 27.074 25.8 L 27.074 25.8 Q 26.839 25.619 26.661 25.362 L 26.661 25.362 L 26.661 25.362 Q 26.484 25.105 26.376 24.765 L 26.376 24.765 L 26.376 24.765 Q 26.268 24.425 26.268 24 L 26.268 24 L 26.268 21.766 L 26.268 21.766 Q 26.268 21.531 26.322 21.271 L 26.322 21.271 L 26.322 21.271 Q 26.376 21.01 26.49 20.753 L 26.49 20.753 L 26.49 20.753 Q 26.604 20.496 26.785 20.261 L 26.785 20.261 L 26.785 20.261 Q 26.966 20.026 27.223 19.849 L 27.223 19.849 L 27.223 19.849 Q 27.48 19.671 27.817 19.563 L 27.817 19.563 L 27.817 19.563 Q 28.153 19.455 28.578 19.455 L 28.578 19.455 L 31.555 19.455 L 31.555 19.455 Q 31.79 19.455 32.054 19.509 L 32.054 19.509 L 32.054 19.509 Q 32.317 19.563 32.574 19.677 L 32.574 19.677 L 32.574 19.677 Q 32.831 19.792 33.066 19.972 L 33.066 19.972 L 33.066 19.972 Q 33.301 20.153 33.479 20.41 L 33.479 20.41 L 33.479 20.41 Q 33.656 20.668 33.764 21.004 L 33.764 21.004 L 33.764 21.004 Q 33.872 21.34 33.872 21.766 L 33.872 21.766 Z  M 37.059 16.554 L 37.059 18.046 L 35.408 18.046 L 35.408 16.554 L 37.059 16.554 Z  M 37.059 19.455 L 37.059 26.317 L 35.408 26.317 L 35.408 19.455 L 37.059 19.455 Z  M 45.273 24 L 45.273 24 L 45.273 24 Q 45.273 24.425 45.165 24.765 L 45.165 24.765 L 45.165 24.765 Q 45.057 25.105 44.879 25.362 L 44.879 25.362 L 44.879 25.362 Q 44.701 25.619 44.467 25.8 L 44.467 25.8 L 44.467 25.8 Q 44.232 25.981 43.975 26.095 L 43.975 26.095 L 43.975 26.095 Q 43.718 26.209 43.454 26.263 L 43.454 26.263 L 43.454 26.263 Q 43.191 26.317 42.956 26.317 L 42.956 26.317 L 38.487 26.317 L 38.487 24.667 L 42.943 24.667 L 42.943 24.667 Q 43.28 24.667 43.451 24.495 L 43.451 24.495 L 43.451 24.495 Q 43.622 24.324 43.622 24 L 43.622 24 L 43.622 24 Q 43.591 23.34 42.956 23.34 L 42.956 23.34 L 40.398 23.34 L 40.398 23.34 Q 39.852 23.34 39.471 23.149 L 39.471 23.149 L 39.471 23.149 Q 39.09 22.959 38.852 22.673 L 38.852 22.673 L 38.852 22.673 Q 38.614 22.388 38.509 22.058 L 38.509 22.058 L 38.509 22.058 Q 38.405 21.728 38.405 21.442 L 38.405 21.442 L 38.405 21.442 Q 38.405 20.89 38.601 20.512 L 38.601 20.512 L 38.601 20.512 Q 38.798 20.134 39.096 19.899 L 39.096 19.899 L 39.096 19.899 Q 39.395 19.665 39.744 19.56 L 39.744 19.56 L 39.744 19.56 Q 40.093 19.455 40.398 19.455 L 40.398 19.455 L 44.454 19.455 L 44.454 21.106 L 40.41 21.106 L 40.41 21.106 Q 40.283 21.106 40.21 21.134 L 40.21 21.134 L 40.21 21.134 Q 40.137 21.163 40.103 21.21 L 40.103 21.21 L 40.103 21.21 Q 40.068 21.258 40.061 21.312 L 40.061 21.312 L 40.061 21.312 Q 40.055 21.366 40.055 21.417 L 40.055 21.417 L 40.055 21.417 Q 40.061 21.518 40.093 21.575 L 40.093 21.575 L 40.093 21.575 Q 40.125 21.632 40.172 21.658 L 40.172 21.658 L 40.172 21.658 Q 40.22 21.683 40.28 21.686 L 40.28 21.686 L 40.28 21.686 Q 40.341 21.69 40.398 21.69 L 40.398 21.69 L 42.956 21.69 L 42.956 21.69 Q 43.591 21.69 44.035 21.918 L 44.035 21.918 L 44.035 21.918 Q 44.479 22.147 44.752 22.492 L 44.752 22.492 L 44.752 22.492 Q 45.025 22.838 45.149 23.245 L 45.149 23.245 L 45.149 23.245 Q 45.273 23.651 45.273 24 Z  M 52.668 19.455 L 52.668 21.106 L 49.786 21.106 L 49.786 26.317 L 48.116 26.317 L 48.116 21.106 L 45.971 21.106 L 45.971 19.455 L 48.116 19.455 L 48.116 17.214 L 49.786 17.214 L 49.786 19.455 L 52.668 19.455 Z  M 55.429 16.554 L 55.429 18.046 L 53.779 18.046 L 53.779 16.554 L 55.429 16.554 Z  M 55.429 19.455 L 55.429 26.317 L 53.779 26.317 L 53.779 19.455 L 55.429 19.455 Z  M 61.186 22.572 L 65.071 26.317 L 62.691 26.317 L 59.365 23.105 L 59.365 23.105 Q 59.085 22.851 59.104 22.47 L 59.104 22.47 L 59.104 22.47 Q 59.117 22.293 59.196 22.137 L 59.196 22.137 L 59.196 22.137 Q 59.276 21.982 59.415 21.874 L 59.415 21.874 L 62.43 19.442 L 65.071 19.442 L 61.186 22.572 Z  M 58.685 16.554 L 58.685 26.317 L 57.035 26.317 L 57.035 16.554 L 58.685 16.554 Z  M 73.38 21.728 L 73.38 21.728 L 73.38 21.728 Q 73.38 22.07 73.26 22.467 L 73.26 22.467 L 73.26 22.467 Q 73.139 22.864 72.869 23.203 L 72.869 23.203 L 72.869 23.203 Q 72.599 23.543 72.165 23.772 L 72.165 23.772 L 72.165 23.772 Q 71.73 24 71.108 24 L 71.108 24 L 68.131 24 L 68.131 22.432 L 71.108 22.432 L 71.108 22.432 Q 71.444 22.432 71.628 22.226 L 71.628 22.226 L 71.628 22.226 Q 71.812 22.02 71.812 21.715 L 71.812 21.715 L 71.812 21.715 Q 71.812 21.391 71.606 21.207 L 71.606 21.207 L 71.606 21.207 Q 71.4 21.023 71.108 21.023 L 71.108 21.023 L 68.131 21.023 L 68.131 21.023 Q 67.794 21.023 67.61 21.229 L 67.61 21.229 L 67.61 21.229 Q 67.426 21.436 67.426 21.74 L 67.426 21.74 L 67.426 24.044 L 67.426 24.044 Q 67.426 24.375 67.632 24.559 L 67.632 24.559 L 67.632 24.559 Q 67.839 24.743 68.143 24.743 L 68.143 24.743 L 71.108 24.743 L 71.108 26.317 L 68.131 26.317 L 68.131 26.317 Q 67.788 26.317 67.391 26.196 L 67.391 26.196 L 67.391 26.196 Q 66.994 26.076 66.655 25.806 L 66.655 25.806 L 66.655 25.806 Q 66.315 25.536 66.087 25.101 L 66.087 25.101 L 66.087 25.101 Q 65.858 24.667 65.858 24.044 L 65.858 24.044 L 65.858 21.728 L 65.858 21.728 Q 65.858 21.385 65.979 20.988 L 65.979 20.988 L 65.979 20.988 Q 66.099 20.591 66.369 20.252 L 66.369 20.252 L 66.369 20.252 Q 66.639 19.912 67.074 19.684 L 67.074 19.684 L 67.074 19.684 Q 67.509 19.455 68.131 19.455 L 68.131 19.455 L 71.108 19.455 L 71.108 19.455 Q 71.45 19.455 71.847 19.576 L 71.847 19.576 L 71.847 19.576 Q 72.244 19.696 72.583 19.966 L 72.583 19.966 L 72.583 19.966 Q 72.923 20.236 73.152 20.671 L 73.152 20.671 L 73.152 20.671 Q 73.38 21.106 73.38 21.728 Z  M 80.496 19.455 L 80.496 21.106 L 76.782 21.106 L 76.782 21.106 Q 76.446 21.106 76.275 21.274 L 76.275 21.274 L 76.275 21.274 Q 76.103 21.442 76.103 21.766 L 76.103 21.766 L 76.103 26.317 L 74.453 26.317 L 74.453 21.766 L 74.453 21.766 Q 74.453 21.34 74.561 21.004 L 74.561 21.004 L 74.561 21.004 Q 74.669 20.668 74.85 20.41 L 74.85 20.41 L 74.85 20.41 Q 75.031 20.153 75.265 19.972 L 75.265 19.972 L 75.265 19.972 Q 75.5 19.792 75.757 19.677 L 75.757 19.677 L 75.757 19.677 Q 76.014 19.563 76.278 19.509 L 76.278 19.509 L 76.278 19.509 Q 76.541 19.455 76.77 19.455 L 76.77 19.455 L 80.496 19.455 Z " fill-rule="evenodd" fill="rgb(0,0,0)"/></g></svg>