<?xml version="1.0" standalone="no"?><!-- Generator: Gravit.io --><svg xmlns="http://www.w3.org/2000/svg" xmlns:xlink="http://www.w3.org/1999/xlink" style="isolation:isolate" viewBox="0 0 90 380" width="90" height="380"><defs><clipPath id="_clipPath_o3Ld8tC258FbwdHiO2volo7rI2FZvvkE"><rect width="90" height="380"/></clipPath></defs><g clip-path="url(#_clipPath_o3Ld8tC258FbwdHiO2volo7rI2FZvvkE)"><path d=" M 0 0 L 90 0 L 90 380 L 0 380 L 0 0 Z " fill="rgb(230,230,230)"/><line x1="35.934" y1="225.097" x2="52.934" y2="225.097" vector-effect="non-scaling-stroke" stroke-width="2" stroke="rgb(0,0,0)" stroke-linejoin="miter" stroke-linecap="square" stroke-miterlimit="3"/><line x1="35.934" y1="159.063" x2="52.934" y2="159.063" vector-effect="non-scaling-stroke" stroke-width="2" stroke="rgb(0,0,0)" stroke-linejoin="miter" stroke-linecap="square" stroke-miterlimit="3"/><path d=" M 35.6 360.026 L 35.6 364.228 L 34.076 364.228 L 34.076 360.026 L 34.076 360.026 Q 34.076 359.728 33.918 359.572 L 33.918 359.572 L 33.918 359.572 Q 33.76 359.417 33.449 359.417 L 33.449 359.417 L 31.469 359.417 L 31.469 364.228 L 29.945 364.228 L 29.945 358.649 L 29.945 358.649 Q 29.945 358.491 30.004 358.354 L 30.004 358.354 L 30.004 358.354 Q 30.063 358.216 30.168 358.113 L 30.168 358.113 L 30.168 358.113 Q 30.273 358.011 30.414 357.952 L 30.414 357.952 L 30.414 357.952 Q 30.555 357.894 30.713 357.894 L 30.713 357.894 L 33.461 357.894 L 33.461 357.894 Q 33.777 357.894 34.141 358.005 L 34.141 358.005 L 34.141 358.005 Q 34.504 358.116 34.832 358.362 L 34.832 358.362 L 34.832 357.894 L 36.895 357.894 L 36.895 357.894 Q 37.111 357.894 37.352 357.943 L 37.352 357.943 L 37.352 357.943 Q 37.592 357.993 37.829 358.099 L 37.829 358.099 L 37.829 358.099 Q 38.066 358.204 38.283 358.371 L 38.283 358.371 L 38.283 358.371 Q 38.5 358.538 38.664 358.775 L 38.664 358.775 L 38.664 358.775 Q 38.828 359.013 38.928 359.323 L 38.928 359.323 L 38.928 359.323 Q 39.027 359.634 39.027 360.026 L 39.027 360.026 L 39.027 364.228 L 37.504 364.228 L 37.504 360.026 L 37.504 360.026 Q 37.504 359.728 37.354 359.572 L 37.354 359.572 L 37.354 359.572 Q 37.205 359.417 36.895 359.417 L 36.895 359.417 L 35.523 359.417 L 35.523 359.417 Q 35.6 359.698 35.6 360.026 L 35.6 360.026 Z  M 48.051 361.409 L 48.051 362.089 L 48.051 362.089 Q 48.051 362.306 48.001 362.546 L 48.001 362.546 L 48.001 362.546 Q 47.951 362.786 47.843 363.023 L 47.843 363.023 L 47.843 363.023 Q 47.734 363.261 47.564 363.478 L 47.564 363.478 L 47.564 363.478 Q 47.395 363.694 47.157 363.861 L 47.157 363.861 L 47.157 363.861 Q 46.92 364.028 46.609 364.128 L 46.609 364.128 L 46.609 364.128 Q 46.299 364.228 45.912 364.228 L 45.912 364.228 L 42.467 364.228 L 42.467 364.228 Q 42.15 364.228 41.775 364.116 L 41.775 364.116 L 41.775 364.116 Q 41.4 364.005 41.081 363.75 L 41.081 363.75 L 41.081 363.75 Q 40.762 363.495 40.548 363.088 L 40.548 363.088 L 40.548 363.088 Q 40.334 362.681 40.334 362.089 L 40.334 362.089 L 40.334 361.409 L 40.334 361.409 Q 40.334 361.187 40.384 360.94 L 40.384 360.94 L 40.384 360.94 Q 40.434 360.694 40.542 360.454 L 40.542 360.454 L 40.542 360.454 Q 40.65 360.214 40.82 359.997 L 40.82 359.997 L 40.82 359.997 Q 40.99 359.78 41.23 359.622 L 41.23 359.622 L 41.23 359.622 Q 41.125 359.376 41.072 359.124 L 41.072 359.124 L 41.072 359.124 Q 41.02 358.872 41.02 358.649 L 41.02 358.649 L 41.02 357.964 L 41.02 357.964 Q 41.02 357.378 41.233 356.968 L 41.233 356.968 L 41.233 356.968 Q 41.447 356.558 41.767 356.306 L 41.767 356.306 L 41.767 356.306 Q 42.086 356.054 42.461 355.939 L 42.461 355.939 L 42.461 355.939 Q 42.836 355.825 43.152 355.825 L 43.152 355.825 L 45.215 355.825 L 45.215 355.825 Q 45.607 355.825 45.921 355.925 L 45.921 355.925 L 45.921 355.925 Q 46.234 356.024 46.472 356.191 L 46.472 356.191 L 46.472 356.191 Q 46.709 356.358 46.876 356.575 L 46.876 356.575 L 46.876 356.575 Q 47.043 356.792 47.148 357.029 L 47.148 357.029 L 47.148 357.029 Q 47.254 357.267 47.304 357.51 L 47.304 357.51 L 47.304 357.51 Q 47.354 357.753 47.354 357.964 L 47.354 357.964 L 47.354 358.649 L 47.354 358.649 Q 47.354 359.224 47.148 359.646 L 47.148 359.646 L 47.148 359.646 Q 47.336 359.769 47.5 359.936 L 47.5 359.936 L 47.5 359.936 Q 47.664 360.103 47.787 360.319 L 47.787 360.319 L 47.787 360.319 Q 47.91 360.536 47.98 360.809 L 47.98 360.809 L 47.98 360.809 Q 48.051 361.081 48.051 361.409 L 48.051 361.409 Z  M 45.83 358.649 L 45.83 357.976 L 45.83 357.976 Q 45.83 357.665 45.672 357.507 L 45.672 357.507 L 45.672 357.507 Q 45.514 357.349 45.215 357.349 L 45.215 357.349 L 43.164 357.349 L 43.164 357.349 Q 42.854 357.349 42.704 357.507 L 42.704 357.507 L 42.704 357.507 Q 42.555 357.665 42.555 357.964 L 42.555 357.964 L 42.555 358.649 L 42.555 358.649 Q 42.555 358.954 42.71 359.106 L 42.71 359.106 L 42.71 359.106 Q 42.865 359.259 43.152 359.259 L 43.152 359.259 L 45.215 359.259 L 45.215 359.259 Q 45.525 359.259 45.678 359.104 L 45.678 359.104 L 45.678 359.104 Q 45.83 358.948 45.83 358.649 L 45.83 358.649 Z  M 46.51 362.089 L 46.51 361.409 L 46.51 361.409 Q 46.51 361.116 46.349 360.955 L 46.349 360.955 L 46.349 360.955 Q 46.188 360.794 45.912 360.794 L 45.912 360.794 L 42.467 360.794 L 42.467 360.794 Q 42.186 360.794 42.021 360.97 L 42.021 360.97 L 42.021 360.97 Q 41.857 361.146 41.857 361.409 L 41.857 361.409 L 41.857 362.089 L 41.857 362.089 Q 41.857 362.37 42.03 362.537 L 42.03 362.537 L 42.03 362.537 Q 42.203 362.704 42.467 362.704 L 42.467 362.704 L 45.912 362.704 L 45.912 362.704 Q 46.205 362.704 46.357 362.528 L 46.357 362.528 L 46.357 362.528 Q 46.51 362.353 46.51 362.089 L 46.51 362.089 Z  M 59.113 359.341 L 59.113 360.712 L 59.113 360.712 Q 59.113 361.228 58.981 361.688 L 58.981 361.688 L 58.981 361.688 Q 58.85 362.147 58.609 362.54 L 58.609 362.54 L 58.609 362.54 Q 58.369 362.933 58.041 363.243 L 58.041 363.243 L 58.041 363.243 Q 57.713 363.554 57.323 363.773 L 57.323 363.773 L 57.323 363.773 Q 56.934 363.993 56.494 364.11 L 56.494 364.11 L 56.494 364.11 Q 56.055 364.228 55.598 364.228 L 55.598 364.228 L 52.85 364.228 L 52.85 364.228 Q 52.387 364.228 51.947 364.11 L 51.947 364.11 L 51.947 364.11 Q 51.508 363.993 51.118 363.773 L 51.118 363.773 L 51.118 363.773 Q 50.729 363.554 50.4 363.243 L 50.4 363.243 L 50.4 363.243 Q 50.072 362.933 49.835 362.54 L 49.835 362.54 L 49.835 362.54 Q 49.598 362.147 49.466 361.688 L 49.466 361.688 L 49.466 361.688 Q 49.334 361.228 49.334 360.712 L 49.334 360.712 L 49.334 359.341 L 49.334 359.341 Q 49.334 358.567 49.624 357.923 L 49.624 357.923 L 49.624 357.923 Q 49.914 357.278 50.4 356.813 L 50.4 356.813 L 50.4 356.813 Q 50.887 356.347 51.522 356.086 L 51.522 356.086 L 51.522 356.086 Q 52.158 355.825 52.85 355.825 L 52.85 355.825 L 55.598 355.825 L 55.598 355.825 Q 56.055 355.825 56.494 355.942 L 56.494 355.942 L 56.494 355.942 Q 56.934 356.06 57.323 356.279 L 57.323 356.279 L 57.323 356.279 Q 57.713 356.499 58.041 356.81 L 58.041 356.81 L 58.041 356.81 Q 58.369 357.12 58.609 357.513 L 58.609 357.513 L 58.609 357.513 Q 58.85 357.905 58.981 358.365 L 58.981 358.365 L 58.981 358.365 Q 59.113 358.825 59.113 359.341 L 59.113 359.341 Z  M 57.578 360.712 L 57.578 359.341 L 57.578 359.341 Q 57.578 358.89 57.414 358.521 L 57.414 358.521 L 57.414 358.521 Q 57.25 358.151 56.978 357.888 L 56.978 357.888 L 56.978 357.888 Q 56.705 357.624 56.348 357.483 L 56.348 357.483 L 56.348 357.483 Q 55.99 357.343 55.598 357.349 L 55.598 357.349 L 52.85 357.349 L 52.85 357.349 Q 52.469 357.343 52.108 357.48 L 52.108 357.48 L 52.108 357.48 Q 51.748 357.618 51.47 357.879 L 51.47 357.879 L 51.47 357.879 Q 51.191 358.14 51.024 358.512 L 51.024 358.512 L 51.024 358.512 Q 50.857 358.884 50.857 359.341 L 50.857 359.341 L 50.857 360.712 L 50.857 360.712 Q 50.857 361.169 51.021 361.538 L 51.021 361.538 L 51.021 361.538 Q 51.186 361.907 51.461 362.168 L 51.461 362.168 L 51.461 362.168 Q 51.736 362.429 52.097 362.569 L 52.097 362.569 L 52.097 362.569 Q 52.457 362.71 52.85 362.704 L 52.85 362.704 L 55.598 362.704 L 55.598 362.704 Q 56.049 362.704 56.415 362.555 L 56.415 362.555 L 56.415 362.555 Q 56.781 362.405 57.039 362.142 L 57.039 362.142 L 57.039 362.142 Q 57.297 361.878 57.438 361.512 L 57.438 361.512 L 57.438 361.512 Q 57.578 361.146 57.578 360.712 L 57.578 360.712 Z  M 56.916 358.228 L 56.916 358.228 L 56.916 358.228 Q 57.004 358.356 57.033 358.506 L 57.033 358.506 L 57.033 358.506 Q 57.063 358.655 57.033 358.799 L 57.033 358.799 L 57.033 358.799 Q 57.004 358.942 56.919 359.068 L 56.919 359.068 L 56.919 359.068 Q 56.834 359.194 56.699 359.282 L 56.699 359.282 L 52.586 362.03 L 52.586 362.03 Q 52.486 362.106 52.381 362.136 L 52.381 362.136 L 52.381 362.136 Q 52.275 362.165 52.164 362.165 L 52.164 362.165 L 52.164 362.165 Q 51.977 362.165 51.807 362.077 L 51.807 362.077 L 51.807 362.077 Q 51.637 361.989 51.531 361.825 L 51.531 361.825 L 51.531 361.825 Q 51.443 361.696 51.414 361.547 L 51.414 361.547 L 51.414 361.547 Q 51.385 361.397 51.411 361.254 L 51.411 361.254 L 51.411 361.254 Q 51.438 361.11 51.52 360.984 L 51.52 360.984 L 51.52 360.984 Q 51.602 360.858 51.736 360.771 L 51.736 360.771 L 55.861 358.022 L 55.861 358.022 Q 55.99 357.935 56.14 357.905 L 56.14 357.905 L 56.14 357.905 Q 56.289 357.876 56.433 357.905 L 56.433 357.905 L 56.433 357.905 Q 56.576 357.935 56.702 358.017 L 56.702 358.017 L 56.702 358.017 Q 56.828 358.099 56.916 358.228 Z " fill-rule="evenodd" fill="rgb(0,0,0)"/><path d=" M 21.103 25.308 L 21.103 25.308 L 21.103 25.308 Q 21.103 26.08 21.086 26.835 L 21.086 26.835 L 21.086 26.835 Q 21.069 27.591 21.035 28.356 L 21.035 28.356 L 17.097 28.288 L 17.097 28.288 Q 17.302 27.078 17.453 25.872 L 17.453 25.872 L 17.453 25.872 Q 17.603 24.665 17.603 23.434 L 17.603 23.434 L 17.603 23.434 Q 17.603 23.346 17.596 23.147 L 17.596 23.147 L 17.596 23.147 Q 17.589 22.949 17.569 22.7 L 17.569 22.7 L 17.569 22.7 Q 17.548 22.45 17.511 22.187 L 17.511 22.187 L 17.511 22.187 Q 17.473 21.924 17.408 21.705 L 17.408 21.705 L 17.408 21.705 Q 17.343 21.486 17.251 21.346 L 17.251 21.346 L 17.251 21.346 Q 17.159 21.206 17.029 21.206 L 17.029 21.206 L 17.029 21.206 Q 16.796 21.206 16.636 21.343 L 16.636 21.343 L 16.636 21.343 Q 16.475 21.479 16.369 21.695 L 16.369 21.695 L 16.369 21.695 Q 16.263 21.91 16.202 22.177 L 16.202 22.177 L 16.202 22.177 Q 16.14 22.443 16.109 22.71 L 16.109 22.71 L 16.109 22.71 Q 16.079 22.976 16.068 23.212 L 16.068 23.212 L 16.068 23.212 Q 16.058 23.448 16.058 23.599 L 16.058 23.599 L 16.058 23.599 Q 16.024 24.809 16.003 26.001 L 16.003 26.001 L 16.003 26.001 Q 15.983 27.194 15.949 28.411 L 15.949 28.411 L 12.462 28.561 L 12.462 28.561 Q 12.599 26.148 12.726 23.763 L 12.726 23.763 L 12.726 23.763 Q 12.852 21.377 12.927 18.964 L 12.927 18.964 L 16.154 18.8 L 16.126 19.893 L 16.126 19.893 Q 16.318 19.661 16.54 19.456 L 16.54 19.456 L 16.54 19.456 Q 16.762 19.251 17.015 19.104 L 17.015 19.104 L 17.015 19.104 Q 17.268 18.957 17.552 18.872 L 17.552 18.872 L 17.552 18.872 Q 17.835 18.786 18.15 18.786 L 18.15 18.786 L 18.15 18.786 Q 18.731 18.786 19.168 18.977 L 19.168 18.977 L 19.168 18.977 Q 19.606 19.169 19.92 19.497 L 19.92 19.497 L 19.92 19.497 Q 20.235 19.825 20.447 20.273 L 20.447 20.273 L 20.447 20.273 Q 20.659 20.721 20.789 21.226 L 20.789 21.226 L 20.789 21.226 Q 20.918 21.732 20.987 22.283 L 20.987 22.283 L 20.987 22.283 Q 21.055 22.833 21.079 23.366 L 21.079 23.366 L 21.079 23.366 Q 21.103 23.899 21.103 24.398 L 21.103 24.398 L 21.103 24.398 Q 21.103 24.897 21.103 25.308 Z  M 30.195 23.94 L 30.195 23.94 L 30.195 23.94 Q 30.195 24.562 30.051 25.14 L 30.051 25.14 L 30.051 25.14 Q 29.908 25.718 29.638 26.224 L 29.638 26.224 L 29.638 26.224 Q 29.368 26.729 28.981 27.15 L 28.981 27.15 L 28.981 27.15 Q 28.595 27.57 28.113 27.871 L 28.113 27.871 L 28.113 27.871 Q 27.631 28.172 27.064 28.339 L 27.064 28.339 L 27.064 28.339 Q 26.497 28.507 25.861 28.507 L 25.861 28.507 L 25.861 28.507 Q 25.246 28.507 24.688 28.35 L 24.688 28.35 L 24.688 28.35 Q 24.131 28.192 23.646 27.909 L 23.646 27.909 L 23.646 27.909 Q 23.161 27.625 22.768 27.225 L 22.768 27.225 L 22.768 27.225 Q 22.375 26.825 22.098 26.336 L 22.098 26.336 L 22.098 26.336 Q 21.821 25.848 21.667 25.287 L 21.667 25.287 L 21.667 25.287 Q 21.513 24.726 21.513 24.118 L 21.513 24.118 L 21.513 24.118 Q 21.513 23.523 21.657 22.953 L 21.657 22.953 L 21.657 22.953 Q 21.8 22.382 22.07 21.876 L 22.07 21.876 L 22.07 21.876 Q 22.34 21.37 22.723 20.946 L 22.723 20.946 L 22.723 20.946 Q 23.106 20.522 23.581 20.215 L 23.581 20.215 L 23.581 20.215 Q 24.056 19.907 24.61 19.736 L 24.61 19.736 L 24.61 19.736 Q 25.164 19.565 25.779 19.565 L 25.779 19.565 L 25.779 19.565 Q 26.77 19.565 27.587 19.873 L 27.587 19.873 L 27.587 19.873 Q 28.404 20.181 28.981 20.751 L 28.981 20.751 L 28.981 20.751 Q 29.559 21.322 29.877 22.132 L 29.877 22.132 L 29.877 22.132 Q 30.195 22.942 30.195 23.94 Z  M 27.16 24.118 L 27.16 24.118 L 27.16 24.118 Q 27.16 23.824 27.074 23.547 L 27.074 23.547 L 27.074 23.547 Q 26.989 23.27 26.825 23.055 L 26.825 23.055 L 26.825 23.055 Q 26.661 22.84 26.418 22.706 L 26.418 22.706 L 26.418 22.706 Q 26.175 22.573 25.861 22.573 L 25.861 22.573 L 25.861 22.573 Q 25.54 22.573 25.287 22.689 L 25.287 22.689 L 25.287 22.689 Q 25.034 22.806 24.853 23.007 L 24.853 23.007 L 24.853 23.007 Q 24.671 23.209 24.576 23.479 L 24.576 23.479 L 24.576 23.479 Q 24.48 23.749 24.48 24.05 L 24.48 24.05 L 24.48 24.05 Q 24.48 24.337 24.562 24.624 L 24.562 24.624 L 24.562 24.624 Q 24.644 24.911 24.808 25.143 L 24.808 25.143 L 24.808 25.143 Q 24.972 25.376 25.215 25.519 L 25.215 25.519 L 25.215 25.519 Q 25.458 25.663 25.779 25.663 L 25.779 25.663 L 25.779 25.663 Q 26.1 25.663 26.356 25.537 L 26.356 25.537 L 26.356 25.537 Q 26.613 25.41 26.791 25.195 L 26.791 25.195 L 26.791 25.195 Q 26.968 24.979 27.064 24.699 L 27.064 24.699 L 27.064 24.699 Q 27.16 24.419 27.16 24.118 Z  M 37.673 25.13 L 37.673 25.13 L 37.673 25.13 Q 37.673 26.066 37.349 26.767 L 37.349 26.767 L 37.349 26.767 Q 37.024 27.468 36.46 27.933 L 36.46 27.933 L 36.46 27.933 Q 35.896 28.397 35.141 28.63 L 35.141 28.63 L 35.141 28.63 Q 34.385 28.862 33.517 28.862 L 33.517 28.862 L 33.517 28.862 Q 33.182 28.862 32.782 28.773 L 32.782 28.773 L 32.782 28.773 Q 32.382 28.684 31.972 28.551 L 31.972 28.551 L 31.972 28.551 Q 31.562 28.418 31.183 28.264 L 31.183 28.264 L 31.183 28.264 Q 30.803 28.11 30.509 27.974 L 30.509 27.974 L 30.81 25.157 L 30.81 25.157 Q 31.391 25.506 32.099 25.687 L 32.099 25.687 L 32.099 25.687 Q 32.806 25.868 33.49 25.868 L 33.49 25.868 L 33.49 25.868 Q 33.62 25.868 33.804 25.858 L 33.804 25.858 L 33.804 25.858 Q 33.989 25.848 34.156 25.796 L 34.156 25.796 L 34.156 25.796 Q 34.324 25.745 34.44 25.642 L 34.44 25.642 L 34.44 25.642 Q 34.556 25.54 34.556 25.349 L 34.556 25.349 L 34.556 25.349 Q 34.556 25.219 34.474 25.126 L 34.474 25.126 L 34.474 25.126 Q 34.392 25.034 34.262 24.976 L 34.262 24.976 L 34.262 24.976 Q 34.132 24.918 33.968 24.887 L 33.968 24.887 L 33.968 24.887 Q 33.804 24.856 33.647 24.843 L 33.647 24.843 L 33.647 24.843 Q 33.49 24.829 33.353 24.829 L 33.353 24.829 L 33.353 24.829 Q 33.216 24.829 33.134 24.829 L 33.134 24.829 L 33.134 24.829 Q 32.546 24.829 32.064 24.624 L 32.064 24.624 L 32.064 24.624 Q 31.583 24.419 31.237 24.053 L 31.237 24.053 L 31.237 24.053 Q 30.892 23.687 30.701 23.185 L 30.701 23.185 L 30.701 23.185 Q 30.509 22.683 30.509 22.095 L 30.509 22.095 L 30.509 22.095 Q 30.509 21.288 30.834 20.649 L 30.834 20.649 L 30.834 20.649 Q 31.159 20.01 31.702 19.562 L 31.702 19.562 L 31.702 19.562 Q 32.246 19.114 32.95 18.875 L 32.95 18.875 L 32.95 18.875 Q 33.654 18.636 34.406 18.636 L 34.406 18.636 L 34.406 18.636 Q 34.741 18.636 35.096 18.66 L 35.096 18.66 L 35.096 18.66 Q 35.452 18.684 35.804 18.745 L 35.804 18.745 L 35.804 18.745 Q 36.156 18.807 36.491 18.902 L 36.491 18.902 L 36.491 18.902 Q 36.826 18.998 37.126 19.142 L 37.126 19.142 L 36.867 21.917 L 36.867 21.917 Q 36.402 21.76 35.893 21.654 L 35.893 21.654 L 35.893 21.654 Q 35.383 21.548 34.898 21.548 L 34.898 21.548 L 34.898 21.548 Q 34.809 21.548 34.669 21.551 L 34.669 21.551 L 34.669 21.551 Q 34.529 21.555 34.375 21.572 L 34.375 21.572 L 34.375 21.572 Q 34.221 21.589 34.064 21.623 L 34.064 21.623 L 34.064 21.623 Q 33.907 21.657 33.784 21.715 L 33.784 21.715 L 33.784 21.715 Q 33.661 21.773 33.585 21.869 L 33.585 21.869 L 33.585 21.869 Q 33.51 21.965 33.517 22.095 L 33.517 22.095 L 33.517 22.095 Q 33.524 22.245 33.63 22.337 L 33.63 22.337 L 33.63 22.337 Q 33.736 22.43 33.903 22.481 L 33.903 22.481 L 33.903 22.481 Q 34.071 22.532 34.272 22.553 L 34.272 22.553 L 34.272 22.553 Q 34.474 22.573 34.672 22.577 L 34.672 22.577 L 34.672 22.577 Q 34.871 22.58 35.042 22.577 L 35.042 22.577 L 35.042 22.577 Q 35.212 22.573 35.322 22.587 L 35.322 22.587 L 35.322 22.587 Q 35.869 22.621 36.306 22.819 L 36.306 22.819 L 36.306 22.819 Q 36.744 23.017 37.048 23.346 L 37.048 23.346 L 37.048 23.346 Q 37.352 23.674 37.513 24.128 L 37.513 24.128 L 37.513 24.128 Q 37.673 24.583 37.673 25.13 Z  M 38.275 18.909 L 44.578 18.909 L 44.578 18.909 Q 44.537 19.552 44.502 20.181 L 44.502 20.181 L 44.502 20.181 Q 44.468 20.809 44.414 21.452 L 44.414 21.452 L 41.515 21.602 L 41.447 22.464 L 43.484 22.464 L 43.333 24.583 L 41.283 24.651 L 41.214 25.649 L 42.91 25.649 L 44.113 25.649 L 44.113 25.649 Q 44.072 26.401 44.027 27.143 L 44.027 27.143 L 44.027 27.143 Q 43.983 27.885 43.949 28.63 L 43.949 28.63 L 38.056 28.767 L 38.275 18.909 Z  M 52.822 22.177 L 52.822 22.177 L 52.822 22.177 Q 52.822 22.71 52.729 23.144 L 52.729 23.144 L 52.729 23.144 Q 52.637 23.578 52.439 23.94 L 52.439 23.94 L 52.439 23.94 Q 52.241 24.303 51.926 24.61 L 51.926 24.61 L 51.926 24.61 Q 51.612 24.918 51.167 25.198 L 51.167 25.198 L 52.794 28.097 L 49.718 28.698 L 48.666 25.786 L 47.818 25.813 L 47.695 28.657 L 44.755 28.657 L 44.755 28.657 Q 44.79 27.099 44.82 25.554 L 44.82 25.554 L 44.82 25.554 Q 44.851 24.009 44.892 22.45 L 44.892 22.45 L 44.892 22.45 Q 44.906 21.664 44.919 20.892 L 44.919 20.892 L 44.919 20.892 Q 44.933 20.119 44.974 19.333 L 44.974 19.333 L 44.974 19.333 Q 45.453 19.155 45.917 19.039 L 45.917 19.039 L 45.917 19.039 Q 46.382 18.923 46.851 18.858 L 46.851 18.858 L 46.851 18.858 Q 47.319 18.793 47.801 18.769 L 47.801 18.769 L 47.801 18.769 Q 48.283 18.745 48.789 18.745 L 48.789 18.745 L 48.789 18.745 Q 49.568 18.745 50.296 18.96 L 50.296 18.96 L 50.296 18.96 Q 51.024 19.176 51.584 19.606 L 51.584 19.606 L 51.584 19.606 Q 52.145 20.037 52.483 20.68 L 52.483 20.68 L 52.483 20.68 Q 52.822 21.322 52.822 22.177 Z  M 49.759 22.395 L 49.759 22.395 L 49.759 22.395 Q 49.759 22.108 49.681 21.869 L 49.681 21.869 L 49.681 21.869 Q 49.602 21.63 49.448 21.455 L 49.448 21.455 L 49.448 21.455 Q 49.294 21.281 49.065 21.182 L 49.065 21.182 L 49.065 21.182 Q 48.836 21.083 48.529 21.083 L 48.529 21.083 L 48.529 21.083 Q 48.392 21.083 48.262 21.1 L 48.262 21.1 L 48.262 21.1 Q 48.132 21.117 48.009 21.151 L 48.009 21.151 L 47.9 23.694 L 48.064 23.694 L 48.064 23.694 Q 48.358 23.694 48.662 23.619 L 48.662 23.619 L 48.662 23.619 Q 48.966 23.544 49.209 23.387 L 49.209 23.387 L 49.209 23.387 Q 49.452 23.229 49.605 22.983 L 49.605 22.983 L 49.605 22.983 Q 49.759 22.737 49.759 22.395 Z  M 53.348 19.333 L 56.985 19.142 L 56.233 28.452 L 53.348 28.602 L 53.348 19.333 Z  M 63.527 19.073 L 66.753 18.964 L 66.261 28.233 L 62.679 28.561 L 60.765 23.599 L 60.464 28.657 L 57.388 28.657 L 57.634 18.964 L 61.052 18.8 L 63.417 23.722 L 63.527 19.073 Z  M 75.476 22.778 L 75.558 27.372 L 75.558 27.372 Q 75.237 27.775 74.765 28.076 L 74.765 28.076 L 74.765 28.076 Q 74.293 28.377 73.753 28.575 L 73.753 28.575 L 73.753 28.575 Q 73.213 28.773 72.646 28.872 L 72.646 28.872 L 72.646 28.872 Q 72.079 28.972 71.566 28.972 L 71.566 28.972 L 71.566 28.972 Q 70.575 28.972 69.741 28.616 L 69.741 28.616 L 69.741 28.616 Q 68.907 28.261 68.302 27.635 L 68.302 27.635 L 68.302 27.635 Q 67.697 27.01 67.355 26.162 L 67.355 26.162 L 67.355 26.162 Q 67.013 25.314 67.013 24.337 L 67.013 24.337 L 67.013 24.337 Q 67.013 23.592 67.184 22.877 L 67.184 22.877 L 67.184 22.877 Q 67.355 22.163 67.673 21.531 L 67.673 21.531 L 67.673 21.531 Q 67.991 20.898 68.449 20.369 L 68.449 20.369 L 68.449 20.369 Q 68.907 19.839 69.488 19.456 L 69.488 19.456 L 69.488 19.456 Q 70.069 19.073 70.759 18.861 L 70.759 18.861 L 70.759 18.861 Q 71.45 18.649 72.236 18.649 L 72.236 18.649 L 72.236 18.649 Q 72.53 18.649 72.865 18.673 L 72.865 18.673 L 72.865 18.673 Q 73.2 18.697 73.531 18.755 L 73.531 18.755 L 73.531 18.755 Q 73.863 18.813 74.177 18.916 L 74.177 18.916 L 74.177 18.916 Q 74.492 19.018 74.751 19.169 L 74.751 19.169 L 74.56 21.78 L 74.56 21.78 Q 74.177 21.637 73.771 21.585 L 73.771 21.585 L 73.771 21.585 Q 73.364 21.534 72.974 21.534 L 72.974 21.534 L 72.974 21.534 Q 72.427 21.534 71.952 21.702 L 71.952 21.702 L 71.952 21.702 Q 71.477 21.869 71.125 22.184 L 71.125 22.184 L 71.125 22.184 Q 70.773 22.498 70.568 22.949 L 70.568 22.949 L 70.568 22.949 Q 70.363 23.4 70.363 23.968 L 70.363 23.968 L 70.363 23.968 Q 70.363 24.323 70.458 24.655 L 70.458 24.655 L 70.458 24.655 Q 70.554 24.986 70.749 25.243 L 70.749 25.243 L 70.749 25.243 Q 70.944 25.499 71.234 25.656 L 71.234 25.656 L 71.234 25.656 Q 71.525 25.813 71.908 25.813 L 71.908 25.813 L 71.908 25.813 Q 72.167 25.813 72.444 25.745 L 72.444 25.745 L 72.444 25.745 Q 72.721 25.677 72.919 25.513 L 72.919 25.513 L 72.947 24.979 L 71.306 24.952 L 71.388 22.901 L 71.388 22.901 Q 72.407 22.867 73.425 22.843 L 73.425 22.843 L 73.425 22.843 Q 74.444 22.819 75.476 22.778 L 75.476 22.778 Z " fill-rule="evenodd" fill="rgb(0,0,0)"/><path d=" M 33.791 54.29 L 33.791 47.813 L 34.846 47.813 L 34.846 54.29 L 33.791 54.29 Z  M 36.709 51.741 L 38.186 54.29 L 37.069 54.29 L 35.848 51.943 L 35.848 51.943 Q 35.821 51.943 35.791 51.948 L 35.791 51.948 L 35.791 51.948 Q 35.76 51.952 35.698 51.952 L 35.698 51.952 L 35.698 51.952 Q 35.637 51.952 35.518 51.952 L 35.518 51.952 L 35.518 51.952 Q 35.399 51.952 35.206 51.952 L 35.206 51.952 L 35.206 51.179 L 35.804 51.179 L 35.804 51.179 Q 35.997 51.179 36.19 51.113 L 36.19 51.113 L 36.19 51.113 Q 36.384 51.047 36.542 50.897 L 36.542 50.897 L 36.542 50.897 Q 36.7 50.748 36.797 50.48 L 36.797 50.48 L 36.797 50.48 Q 36.894 50.212 36.894 49.816 L 36.894 49.816 L 36.894 49.816 Q 36.894 49.658 36.85 49.452 L 36.85 49.452 L 36.85 49.452 Q 36.806 49.245 36.669 49.056 L 36.669 49.056 L 36.669 49.056 Q 36.533 48.867 36.287 48.74 L 36.287 48.74 L 36.287 48.74 Q 36.041 48.612 35.637 48.612 L 35.637 48.612 L 35.206 48.612 L 35.206 47.813 L 35.654 47.813 L 35.654 47.813 Q 36.067 47.813 36.472 47.944 L 36.472 47.944 L 36.472 47.944 Q 36.876 48.076 37.197 48.34 L 37.197 48.34 L 37.197 48.34 Q 37.518 48.604 37.715 48.977 L 37.715 48.977 L 37.715 48.977 Q 37.913 49.351 37.913 49.816 L 37.913 49.816 L 37.913 49.816 Q 37.913 50.52 37.588 51.012 L 37.588 51.012 L 37.588 51.012 Q 37.263 51.504 36.709 51.741 L 36.709 51.741 Z  M 42.668 47.821 L 44.918 54.29 L 43.828 54.29 L 42.149 49.438 L 40.453 54.29 L 39.354 54.29 L 41.622 47.821 L 42.668 47.821 Z  M 41.552 52.233 L 42.729 52.233 L 42.984 52.945 L 41.306 52.945 L 41.552 52.233 Z  M 45.92 47.813 L 50.851 47.813 L 50.851 48.533 L 48.917 48.533 L 48.917 54.29 L 47.854 54.29 L 47.854 48.533 L 45.92 48.533 L 45.92 47.813 Z  M 52.134 54.29 L 52.134 47.813 L 53.206 47.813 L 53.206 54.29 L 52.134 54.29 Z  M 55.913 50.651 L 55.913 51.372 L 53.566 51.372 L 53.566 50.651 L 55.913 50.651 Z  M 53.566 54.29 L 53.566 53.49 L 56.186 53.49 L 56.186 54.29 L 53.566 54.29 Z  M 53.566 47.813 L 56.186 47.813 L 56.186 48.612 L 53.566 48.612 L 53.566 47.813 Z " fill-rule="evenodd" fill="rgb(0,0,0)"/><path d=" M 53.184 126.905 L 52.455 127.556 L 52.455 127.556 Q 52.253 127.327 52.024 127.213 L 52.024 127.213 L 52.024 127.213 Q 51.796 127.099 51.532 127.081 L 51.532 127.081 L 51.532 126.211 L 51.532 126.211 Q 52.516 126.255 53.184 126.905 L 53.184 126.905 Z  M 51.532 132.829 L 51.532 131.959 L 51.532 131.959 Q 51.796 131.933 52.028 131.818 L 52.028 131.818 L 52.028 131.818 Q 52.261 131.704 52.455 131.484 L 52.455 131.484 L 53.184 132.126 L 53.184 132.126 Q 52.85 132.451 52.437 132.627 L 52.437 132.627 L 52.437 132.627 Q 52.024 132.803 51.532 132.829 L 51.532 132.829 Z  M 48.684 129.516 L 48.684 129.516 L 48.684 129.516 Q 48.684 128.733 48.873 128.136 L 48.873 128.136 L 48.873 128.136 Q 49.062 127.538 49.396 127.125 L 49.396 127.125 L 49.396 127.125 Q 49.73 126.712 50.183 126.483 L 50.183 126.483 L 50.183 126.483 Q 50.635 126.255 51.172 126.211 L 51.172 126.211 L 51.172 127.09 L 51.172 127.09 Q 50.882 127.134 50.627 127.288 L 50.627 127.288 L 50.627 127.288 Q 50.372 127.441 50.178 127.731 L 50.178 127.731 L 50.178 127.731 Q 49.985 128.021 49.875 128.465 L 49.875 128.465 L 49.875 128.465 Q 49.765 128.909 49.757 129.516 L 49.757 129.516 L 49.757 129.516 Q 49.765 130.131 49.875 130.57 L 49.875 130.57 L 49.875 130.57 Q 49.985 131.01 50.178 131.309 L 50.178 131.309 L 50.178 131.309 Q 50.372 131.607 50.631 131.766 L 50.631 131.766 L 50.631 131.766 Q 50.89 131.924 51.172 131.959 L 51.172 131.959 L 51.172 132.82 L 51.172 132.82 Q 50.635 132.785 50.183 132.557 L 50.183 132.557 L 50.183 132.557 Q 49.73 132.328 49.396 131.915 L 49.396 131.915 L 49.396 131.915 Q 49.062 131.502 48.873 130.9 L 48.873 130.9 L 48.873 130.9 Q 48.684 130.298 48.684 129.516 Z  M 58.59 126.308 L 59.644 126.308 L 59.644 132.785 L 58.59 132.785 L 58.59 129.867 L 56.146 129.867 L 56.146 129.146 L 58.59 129.146 L 58.59 126.308 Z  M 54.714 132.785 L 54.714 126.308 L 55.786 126.308 L 55.786 132.785 L 54.714 132.785 Z  M 64.338 126.316 L 66.588 132.785 L 65.498 132.785 L 63.819 127.934 L 62.123 132.785 L 61.024 132.785 L 63.292 126.316 L 64.338 126.316 Z  M 63.221 130.729 L 64.399 130.729 L 64.654 131.44 L 62.975 131.44 L 63.221 130.729 Z  M 71.562 130.772 L 71.562 126.308 L 72.634 126.308 L 72.634 132.785 L 71.562 132.785 L 69.382 128.953 L 69.382 126.932 L 71.562 130.772 Z  M 69.022 132.785 L 67.95 132.785 L 67.95 126.308 L 69.022 126.308 L 69.022 132.785 Z  M 78.629 126.905 L 77.899 127.556 L 77.899 127.556 Q 77.688 127.301 77.416 127.187 L 77.416 127.187 L 77.416 127.187 Q 77.143 127.072 76.853 127.072 L 76.853 127.072 L 76.818 127.072 L 76.818 126.202 L 76.827 126.202 L 76.827 126.202 Q 77.354 126.202 77.811 126.378 L 77.811 126.378 L 77.811 126.378 Q 78.268 126.554 78.629 126.905 L 78.629 126.905 Z  M 74.129 129.516 L 74.129 129.516 L 74.129 129.516 Q 74.129 128.76 74.304 128.175 L 74.304 128.175 L 74.304 128.175 Q 74.48 127.591 74.788 127.182 L 74.788 127.182 L 74.788 127.182 Q 75.095 126.773 75.526 126.536 L 75.526 126.536 L 75.526 126.536 Q 75.957 126.299 76.458 126.237 L 76.458 126.237 L 76.458 127.116 L 76.458 127.116 Q 76.194 127.187 75.97 127.354 L 75.97 127.354 L 75.97 127.354 Q 75.746 127.521 75.574 127.815 L 75.574 127.815 L 75.574 127.815 Q 75.403 128.109 75.306 128.527 L 75.306 128.527 L 75.306 128.527 Q 75.21 128.944 75.201 129.516 L 75.201 129.516 L 75.201 129.516 Q 75.21 130.087 75.306 130.518 L 75.306 130.518 L 75.306 130.518 Q 75.403 130.948 75.574 131.26 L 75.574 131.26 L 75.574 131.26 Q 75.746 131.572 75.97 131.757 L 75.97 131.757 L 75.97 131.757 Q 76.194 131.941 76.458 132.012 L 76.458 132.012 L 76.458 132.812 L 76.458 132.812 Q 75.957 132.75 75.526 132.508 L 75.526 132.508 L 75.526 132.508 Q 75.095 132.267 74.788 131.854 L 74.788 131.854 L 74.788 131.854 Q 74.48 131.44 74.304 130.856 L 74.304 130.856 L 74.304 130.856 Q 74.129 130.271 74.129 129.516 Z  M 76.818 129.445 L 78.963 129.445 L 78.963 131.95 L 78.963 131.95 Q 78.76 132.205 78.51 132.368 L 78.51 132.368 L 78.51 132.368 Q 78.259 132.53 77.983 132.636 L 77.983 132.636 L 77.983 132.636 Q 77.706 132.741 77.411 132.785 L 77.411 132.785 L 77.411 132.785 Q 77.117 132.829 76.827 132.829 L 76.827 132.829 L 76.818 132.829 L 76.818 132.056 L 76.818 132.056 Q 76.924 132.056 77.077 132.042 L 77.077 132.042 L 77.077 132.042 Q 77.231 132.029 77.394 131.999 L 77.394 131.999 L 77.394 131.999 Q 77.556 131.968 77.701 131.915 L 77.701 131.915 L 77.701 131.915 Q 77.846 131.862 77.917 131.766 L 77.917 131.766 L 77.917 130.166 L 76.818 130.166 L 76.818 129.445 Z  M 80.509 132.785 L 80.509 126.308 L 81.582 126.308 L 81.582 132.785 L 80.509 132.785 Z  M 84.289 129.146 L 84.289 129.867 L 81.942 129.867 L 81.942 129.146 L 84.289 129.146 Z  M 81.942 132.785 L 81.942 131.985 L 84.561 131.985 L 84.561 132.785 L 81.942 132.785 Z  M 81.942 126.308 L 84.561 126.308 L 84.561 127.107 L 81.942 127.107 L 81.942 126.308 Z " fill-rule="evenodd" fill="rgb(0,0,0)"/><path d=" M 53.263 193.41 L 52.533 194.061 L 52.533 194.061 Q 52.331 193.832 52.103 193.718 L 52.103 193.718 L 52.103 193.718 Q 51.874 193.604 51.61 193.586 L 51.61 193.586 L 51.61 192.716 L 51.61 192.716 Q 52.595 192.76 53.263 193.41 L 53.263 193.41 Z  M 51.61 199.334 L 51.61 198.464 L 51.61 198.464 Q 51.874 198.438 52.107 198.323 L 52.107 198.323 L 52.107 198.323 Q 52.34 198.209 52.533 197.989 L 52.533 197.989 L 53.263 198.631 L 53.263 198.631 Q 52.929 198.956 52.516 199.132 L 52.516 199.132 L 52.516 199.132 Q 52.103 199.308 51.61 199.334 L 51.61 199.334 Z  M 48.763 196.021 L 48.763 196.021 L 48.763 196.021 Q 48.763 195.238 48.952 194.641 L 48.952 194.641 L 48.952 194.641 Q 49.141 194.043 49.475 193.63 L 49.475 193.63 L 49.475 193.63 Q 49.809 193.217 50.261 192.988 L 50.261 192.988 L 50.261 192.988 Q 50.714 192.76 51.25 192.716 L 51.25 192.716 L 51.25 193.595 L 51.25 193.595 Q 50.96 193.639 50.705 193.792 L 50.705 193.792 L 50.705 193.792 Q 50.45 193.946 50.257 194.236 L 50.257 194.236 L 50.257 194.236 Q 50.064 194.526 49.954 194.97 L 49.954 194.97 L 49.954 194.97 Q 49.844 195.414 49.835 196.021 L 49.835 196.021 L 49.835 196.021 Q 49.844 196.636 49.954 197.075 L 49.954 197.075 L 49.954 197.075 Q 50.064 197.515 50.257 197.813 L 50.257 197.813 L 50.257 197.813 Q 50.45 198.112 50.71 198.271 L 50.71 198.271 L 50.71 198.271 Q 50.969 198.429 51.25 198.464 L 51.25 198.464 L 51.25 199.325 L 51.25 199.325 Q 50.714 199.29 50.261 199.062 L 50.261 199.062 L 50.261 199.062 Q 49.809 198.833 49.475 198.42 L 49.475 198.42 L 49.475 198.42 Q 49.141 198.007 48.952 197.405 L 48.952 197.405 L 48.952 197.405 Q 48.763 196.803 48.763 196.021 Z  M 58.668 192.813 L 59.723 192.813 L 59.723 199.29 L 58.668 199.29 L 58.668 196.372 L 56.225 196.372 L 56.225 195.651 L 58.668 195.651 L 58.668 192.813 Z  M 54.792 199.29 L 54.792 192.813 L 55.864 192.813 L 55.864 199.29 L 54.792 199.29 Z  M 64.416 192.821 L 66.666 199.29 L 65.576 199.29 L 63.898 194.438 L 62.201 199.29 L 61.103 199.29 L 63.37 192.821 L 64.416 192.821 Z  M 63.3 197.233 L 64.478 197.233 L 64.733 197.945 L 63.054 197.945 L 63.3 197.233 Z  M 71.641 197.277 L 71.641 192.813 L 72.713 192.813 L 72.713 199.29 L 71.641 199.29 L 69.461 195.458 L 69.461 193.437 L 71.641 197.277 Z  M 69.101 199.29 L 68.028 199.29 L 68.028 192.813 L 69.101 192.813 L 69.101 199.29 Z  M 78.707 193.41 L 77.978 194.061 L 77.978 194.061 Q 77.775 193.832 77.547 193.718 L 77.547 193.718 L 77.547 193.718 Q 77.318 193.604 77.055 193.586 L 77.055 193.586 L 77.055 192.716 L 77.055 192.716 Q 78.039 192.76 78.707 193.41 L 78.707 193.41 Z  M 77.055 199.334 L 77.055 198.464 L 77.055 198.464 Q 77.318 198.438 77.551 198.323 L 77.551 198.323 L 77.551 198.323 Q 77.784 198.209 77.978 197.989 L 77.978 197.989 L 78.707 198.631 L 78.707 198.631 Q 78.373 198.956 77.96 199.132 L 77.96 199.132 L 77.96 199.132 Q 77.547 199.308 77.055 199.334 L 77.055 199.334 Z  M 74.207 196.021 L 74.207 196.021 L 74.207 196.021 Q 74.207 195.238 74.396 194.641 L 74.396 194.641 L 74.396 194.641 Q 74.585 194.043 74.919 193.63 L 74.919 193.63 L 74.919 193.63 Q 75.253 193.217 75.706 192.988 L 75.706 192.988 L 75.706 192.988 Q 76.158 192.76 76.694 192.716 L 76.694 192.716 L 76.694 193.595 L 76.694 193.595 Q 76.404 193.639 76.149 193.792 L 76.149 193.792 L 76.149 193.792 Q 75.895 193.946 75.701 194.236 L 75.701 194.236 L 75.701 194.236 Q 75.508 194.526 75.398 194.97 L 75.398 194.97 L 75.398 194.97 Q 75.288 195.414 75.279 196.021 L 75.279 196.021 L 75.279 196.021 Q 75.288 196.636 75.398 197.075 L 75.398 197.075 L 75.398 197.075 Q 75.508 197.515 75.701 197.813 L 75.701 197.813 L 75.701 197.813 Q 75.895 198.112 76.154 198.271 L 76.154 198.271 L 76.154 198.271 Q 76.413 198.429 76.694 198.464 L 76.694 198.464 L 76.694 199.325 L 76.694 199.325 Q 76.158 199.29 75.706 199.062 L 75.706 199.062 L 75.706 199.062 Q 75.253 198.833 74.919 198.42 L 74.919 198.42 L 74.919 198.42 Q 74.585 198.007 74.396 197.405 L 74.396 197.405 L 74.396 197.405 Q 74.207 196.803 74.207 196.021 Z  M 80.245 199.29 L 80.245 192.813 L 81.317 192.813 L 81.317 199.29 L 80.245 199.29 Z  M 84.024 195.651 L 84.024 196.372 L 81.678 196.372 L 81.678 195.651 L 84.024 195.651 Z  M 81.678 199.29 L 81.678 198.49 L 84.297 198.49 L 84.297 199.29 L 81.678 199.29 Z  M 81.678 192.813 L 84.297 192.813 L 84.297 193.612 L 81.678 193.612 L 81.678 192.813 Z " fill-rule="evenodd" fill="rgb(0,0,0)"/><path d=" M 32.826 186.684 L 32.826 186.684 L 32.826 186.684 Q 32.826 186.162 32.952 185.761 L 32.952 185.761 L 32.952 185.761 Q 33.078 185.359 33.304 185.081 L 33.304 185.081 L 33.304 185.081 Q 33.529 184.803 33.837 184.653 L 33.837 184.653 L 33.837 184.653 Q 34.145 184.504 34.508 184.48 L 34.508 184.48 L 34.508 185.066 L 34.508 185.066 Q 34.309 185.09 34.133 185.189 L 34.133 185.189 L 34.133 185.189 Q 33.957 185.289 33.828 185.482 L 33.828 185.482 L 33.828 185.482 Q 33.699 185.676 33.623 185.975 L 33.623 185.975 L 33.623 185.975 Q 33.547 186.273 33.541 186.684 L 33.541 186.684 L 33.541 186.684 Q 33.547 187.1 33.623 187.396 L 33.623 187.396 L 33.623 187.396 Q 33.699 187.691 33.831 187.891 L 33.831 187.891 L 33.831 187.891 Q 33.963 188.09 34.139 188.192 L 34.139 188.192 L 34.139 188.192 Q 34.315 188.295 34.508 188.313 L 34.508 188.313 L 34.508 188.893 L 34.508 188.893 Q 34.151 188.869 33.84 188.72 L 33.84 188.72 L 33.84 188.72 Q 33.529 188.57 33.304 188.292 L 33.304 188.292 L 33.304 188.292 Q 33.078 188.014 32.952 187.609 L 32.952 187.609 L 32.952 187.609 Q 32.826 187.205 32.826 186.684 Z  M 34.742 185.061 L 34.742 184.48 L 34.742 184.48 Q 35.1 184.498 35.407 184.65 L 35.407 184.65 L 35.407 184.65 Q 35.715 184.803 35.941 185.081 L 35.941 185.081 L 35.941 185.081 Q 36.166 185.359 36.295 185.761 L 36.295 185.761 L 36.295 185.761 Q 36.424 186.162 36.424 186.684 L 36.424 186.684 L 36.424 186.684 Q 36.424 187.205 36.295 187.609 L 36.295 187.609 L 36.295 187.609 Q 36.166 188.014 35.941 188.292 L 35.941 188.292 L 35.941 188.292 Q 35.715 188.57 35.41 188.72 L 35.41 188.72 L 35.41 188.72 Q 35.106 188.869 34.742 188.893 L 34.742 188.893 L 34.742 188.313 L 34.742 188.313 Q 34.942 188.289 35.117 188.187 L 35.117 188.187 L 35.117 188.187 Q 35.293 188.084 35.422 187.888 L 35.422 187.888 L 35.422 187.888 Q 35.551 187.691 35.627 187.396 L 35.627 187.396 L 35.627 187.396 Q 35.703 187.1 35.709 186.684 L 35.709 186.684 L 35.709 186.684 Q 35.703 186.268 35.627 185.972 L 35.627 185.972 L 35.627 185.972 Q 35.551 185.676 35.419 185.479 L 35.419 185.479 L 35.419 185.479 Q 35.287 185.283 35.111 185.181 L 35.111 185.181 L 35.111 185.181 Q 34.936 185.078 34.742 185.061 L 34.742 185.061 Z  M 37.42 184.545 L 38.135 184.545 L 38.135 188.33 L 40.121 188.33 L 40.121 188.863 L 37.42 188.863 L 37.42 184.545 Z  M 40.86 188.863 L 40.86 184.545 L 41.563 184.545 L 41.563 188.863 L 40.86 188.863 Z  M 41.803 184.545 L 42.16 184.545 L 42.16 184.545 Q 42.705 184.545 43.118 184.718 L 43.118 184.718 L 43.118 184.718 Q 43.531 184.891 43.804 185.178 L 43.804 185.178 L 43.804 185.178 Q 44.076 185.465 44.211 185.831 L 44.211 185.831 L 44.211 185.831 Q 44.346 186.197 44.346 186.584 L 44.346 186.584 L 44.346 186.584 Q 44.346 187.117 44.232 187.495 L 44.232 187.495 L 44.232 187.495 Q 44.117 187.873 43.942 188.128 L 43.942 188.128 L 43.942 188.128 Q 43.766 188.383 43.546 188.529 L 43.546 188.529 L 43.546 188.529 Q 43.326 188.676 43.121 188.749 L 43.121 188.749 L 43.121 188.749 Q 42.916 188.822 42.746 188.843 L 42.746 188.843 L 42.746 188.843 Q 42.576 188.863 42.494 188.863 L 42.494 188.863 L 41.803 188.863 L 41.803 188.348 L 42.26 188.348 L 42.26 188.348 Q 42.975 188.348 43.291 187.891 L 43.291 187.891 L 43.291 187.891 Q 43.608 187.434 43.608 186.566 L 43.608 186.566 L 43.608 186.566 Q 43.608 186.297 43.543 186.033 L 43.543 186.033 L 43.543 186.033 Q 43.479 185.77 43.294 185.556 L 43.294 185.556 L 43.294 185.556 Q 43.11 185.342 42.793 185.21 L 42.793 185.21 L 42.793 185.21 Q 42.477 185.078 41.973 185.078 L 41.973 185.078 L 41.803 185.078 L 41.803 184.545 Z  M 33.878 176.875 L 33.878 181.193 L 33.163 181.193 L 33.163 176.875 L 33.878 176.875 Z  M 37.364 179.852 L 37.364 176.875 L 38.079 176.875 L 38.079 181.193 L 37.364 181.193 L 35.911 178.639 L 35.911 177.291 L 37.364 179.852 Z  M 35.671 181.193 L 34.956 181.193 L 34.956 176.875 L 35.671 176.875 L 35.671 181.193 Z  M 40.306 181.217 L 38.964 176.875 L 39.767 176.875 L 40.675 180.262 L 40.675 181.217 L 40.306 181.217 Z  M 40.915 180.074 L 41.829 176.875 L 42.626 176.875 L 41.22 181.217 L 40.915 181.217 L 40.915 180.074 Z " fill-rule="evenodd" fill="rgb(0,0,0)"/><path d=" M 58.195 268.525 L 58.195 268.525 L 58.195 268.525 Q 58.195 267.743 58.384 267.141 L 58.384 267.141 L 58.384 267.141 Q 58.573 266.539 58.911 266.122 L 58.911 266.122 L 58.911 266.122 Q 59.25 265.704 59.711 265.48 L 59.711 265.48 L 59.711 265.48 Q 60.172 265.256 60.717 265.221 L 60.717 265.221 L 60.717 266.1 L 60.717 266.1 Q 60.419 266.135 60.155 266.284 L 60.155 266.284 L 60.155 266.284 Q 59.891 266.434 59.698 266.724 L 59.698 266.724 L 59.698 266.724 Q 59.505 267.014 59.39 267.462 L 59.39 267.462 L 59.39 267.462 Q 59.276 267.91 59.267 268.525 L 59.267 268.525 L 59.267 268.525 Q 59.276 269.149 59.39 269.593 L 59.39 269.593 L 59.39 269.593 Q 59.505 270.037 59.702 270.336 L 59.702 270.336 L 59.702 270.336 Q 59.9 270.635 60.164 270.789 L 60.164 270.789 L 60.164 270.789 Q 60.427 270.942 60.717 270.969 L 60.717 270.969 L 60.717 271.839 L 60.717 271.839 Q 60.181 271.804 59.715 271.58 L 59.715 271.58 L 59.715 271.58 Q 59.25 271.355 58.911 270.938 L 58.911 270.938 L 58.911 270.938 Q 58.573 270.521 58.384 269.914 L 58.384 269.914 L 58.384 269.914 Q 58.195 269.308 58.195 268.525 Z  M 61.069 266.091 L 61.069 265.221 L 61.069 265.221 Q 61.605 265.247 62.067 265.476 L 62.067 265.476 L 62.067 265.476 Q 62.528 265.704 62.866 266.122 L 62.866 266.122 L 62.866 266.122 Q 63.205 266.539 63.398 267.141 L 63.398 267.141 L 63.398 267.141 Q 63.591 267.743 63.591 268.525 L 63.591 268.525 L 63.591 268.525 Q 63.591 269.308 63.398 269.914 L 63.398 269.914 L 63.398 269.914 Q 63.205 270.521 62.866 270.938 L 62.866 270.938 L 62.866 270.938 Q 62.528 271.355 62.071 271.58 L 62.071 271.58 L 62.071 271.58 Q 61.614 271.804 61.069 271.839 L 61.069 271.839 L 61.069 270.969 L 61.069 270.969 Q 61.368 270.934 61.631 270.78 L 61.631 270.78 L 61.631 270.78 Q 61.895 270.626 62.089 270.332 L 62.089 270.332 L 62.089 270.332 Q 62.282 270.037 62.396 269.593 L 62.396 269.593 L 62.396 269.593 Q 62.51 269.149 62.519 268.525 L 62.519 268.525 L 62.519 268.525 Q 62.51 267.901 62.396 267.458 L 62.396 267.458 L 62.396 267.458 Q 62.282 267.014 62.084 266.719 L 62.084 266.719 L 62.084 266.719 Q 61.886 266.425 61.623 266.271 L 61.623 266.271 L 61.623 266.271 Q 61.359 266.117 61.069 266.091 L 61.069 266.091 Z  M 66.061 265.317 L 66.061 268.42 L 66.061 268.42 Q 66.061 269.097 66.149 269.567 L 66.149 269.567 L 66.149 269.567 Q 66.237 270.037 66.404 270.34 L 66.404 270.34 L 66.404 270.34 Q 66.571 270.644 66.804 270.793 L 66.804 270.793 L 66.804 270.793 Q 67.037 270.942 67.327 270.969 L 67.327 270.969 L 67.327 271.839 L 67.327 271.839 Q 66.791 271.804 66.356 271.58 L 66.356 271.58 L 66.356 271.58 Q 65.921 271.355 65.622 270.938 L 65.622 270.938 L 65.622 270.938 Q 65.323 270.521 65.156 269.914 L 65.156 269.914 L 65.156 269.914 Q 64.989 269.308 64.989 268.525 L 64.989 268.525 L 64.989 265.317 L 66.061 265.317 Z  M 68.962 265.317 L 70.025 265.317 L 70.025 268.525 L 70.025 268.525 Q 70.025 269.308 69.858 269.914 L 69.858 269.914 L 69.858 269.914 Q 69.691 270.521 69.388 270.938 L 69.388 270.938 L 69.388 270.938 Q 69.085 271.355 68.654 271.58 L 68.654 271.58 L 68.654 271.58 Q 68.223 271.804 67.687 271.839 L 67.687 271.839 L 67.687 270.969 L 67.687 270.969 Q 67.977 270.934 68.21 270.789 L 68.21 270.789 L 68.21 270.789 Q 68.443 270.644 68.61 270.345 L 68.61 270.345 L 68.61 270.345 Q 68.777 270.046 68.869 269.576 L 68.869 269.576 L 68.869 269.576 Q 68.962 269.105 68.962 268.42 L 68.962 268.42 L 68.962 265.317 Z  M 71.194 265.317 L 76.125 265.317 L 76.125 266.038 L 74.191 266.038 L 74.191 271.795 L 73.128 271.795 L 73.128 266.038 L 71.194 266.038 L 71.194 265.317 Z  M 58.45 258.277 L 58.45 253.813 L 59.522 253.813 L 59.522 260.29 L 58.45 260.29 L 56.27 256.458 L 56.27 254.437 L 58.45 258.277 Z  M 55.91 260.29 L 54.838 260.29 L 54.838 253.813 L 55.91 253.813 L 55.91 260.29 Z  M 60.999 257.021 L 60.999 257.021 L 60.999 257.021 Q 60.999 256.238 61.188 255.636 L 61.188 255.636 L 61.188 255.636 Q 61.377 255.034 61.715 254.617 L 61.715 254.617 L 61.715 254.617 Q 62.053 254.199 62.515 253.975 L 62.515 253.975 L 62.515 253.975 Q 62.976 253.751 63.521 253.716 L 63.521 253.716 L 63.521 254.595 L 63.521 254.595 Q 63.222 254.63 62.959 254.779 L 62.959 254.779 L 62.959 254.779 Q 62.695 254.929 62.502 255.219 L 62.502 255.219 L 62.502 255.219 Q 62.308 255.509 62.194 255.957 L 62.194 255.957 L 62.194 255.957 Q 62.08 256.405 62.071 257.021 L 62.071 257.021 L 62.071 257.021 Q 62.08 257.645 62.194 258.088 L 62.194 258.088 L 62.194 258.088 Q 62.308 258.532 62.506 258.831 L 62.506 258.831 L 62.506 258.831 Q 62.704 259.13 62.967 259.284 L 62.967 259.284 L 62.967 259.284 Q 63.231 259.438 63.521 259.464 L 63.521 259.464 L 63.521 260.334 L 63.521 260.334 Q 62.985 260.299 62.519 260.075 L 62.519 260.075 L 62.519 260.075 Q 62.053 259.851 61.715 259.433 L 61.715 259.433 L 61.715 259.433 Q 61.377 259.016 61.188 258.409 L 61.188 258.409 L 61.188 258.409 Q 60.999 257.803 60.999 257.021 Z  M 63.873 254.586 L 63.873 253.716 L 63.873 253.716 Q 64.409 253.742 64.87 253.971 L 64.87 253.971 L 64.87 253.971 Q 65.332 254.199 65.67 254.617 L 65.67 254.617 L 65.67 254.617 Q 66.008 255.034 66.202 255.636 L 66.202 255.636 L 66.202 255.636 Q 66.395 256.238 66.395 257.021 L 66.395 257.021 L 66.395 257.021 Q 66.395 257.803 66.202 258.409 L 66.202 258.409 L 66.202 258.409 Q 66.008 259.016 65.67 259.433 L 65.67 259.433 L 65.67 259.433 Q 65.332 259.851 64.875 260.075 L 64.875 260.075 L 64.875 260.075 Q 64.418 260.299 63.873 260.334 L 63.873 260.334 L 63.873 259.464 L 63.873 259.464 Q 64.172 259.429 64.435 259.275 L 64.435 259.275 L 64.435 259.275 Q 64.699 259.121 64.892 258.827 L 64.892 258.827 L 64.892 258.827 Q 65.086 258.532 65.2 258.088 L 65.2 258.088 L 65.2 258.088 Q 65.314 257.645 65.323 257.021 L 65.323 257.021 L 65.323 257.021 Q 65.314 256.396 65.2 255.953 L 65.2 255.953 L 65.2 255.953 Q 65.086 255.509 64.888 255.214 L 64.888 255.214 L 64.888 255.214 Q 64.69 254.92 64.426 254.766 L 64.426 254.766 L 64.426 254.766 Q 64.163 254.612 63.873 254.586 L 63.873 254.586 Z  M 68.97 253.813 L 68.97 260.29 L 67.898 260.29 L 67.898 253.813 L 68.97 253.813 Z  M 73.567 254.814 L 73.567 254.814 L 73.567 254.814 Q 73.523 254.797 73.462 254.753 L 73.462 254.753 L 73.462 254.753 Q 73.4 254.709 73.286 254.669 L 73.286 254.669 L 73.286 254.669 Q 73.172 254.63 72.996 254.604 L 72.996 254.604 L 72.996 254.604 Q 72.82 254.577 72.547 254.595 L 72.547 254.595 L 72.547 253.707 L 72.547 253.707 Q 72.934 253.716 73.334 253.791 L 73.334 253.791 L 73.334 253.791 Q 73.734 253.865 73.98 254.023 L 73.98 254.023 L 73.98 254.023 Q 73.927 254.138 73.857 254.274 L 73.857 254.274 L 73.857 254.274 Q 73.787 254.41 73.725 254.529 L 73.725 254.529 L 73.725 254.529 Q 73.664 254.647 73.62 254.727 L 73.62 254.727 L 73.62 254.727 Q 73.576 254.806 73.567 254.814 Z  M 70.535 255.518 L 70.535 255.518 L 70.535 255.518 Q 70.535 255.131 70.667 254.823 L 70.667 254.823 L 70.667 254.823 Q 70.798 254.516 71.023 254.283 L 71.023 254.283 L 71.023 254.283 Q 71.247 254.05 71.55 253.914 L 71.55 253.914 L 71.55 253.914 Q 71.853 253.777 72.187 253.733 L 72.187 253.733 L 72.187 254.656 L 72.187 254.656 Q 71.906 254.753 71.721 254.995 L 71.721 254.995 L 71.721 254.995 Q 71.537 255.236 71.537 255.482 L 71.537 255.482 L 71.537 255.482 Q 71.537 255.825 71.721 256.036 L 71.721 256.036 L 71.721 256.036 Q 71.906 256.247 72.187 256.405 L 72.187 256.405 L 72.187 257.407 L 72.187 257.407 Q 71.897 257.267 71.607 257.104 L 71.607 257.104 L 71.607 257.104 Q 71.317 256.941 71.08 256.722 L 71.08 256.722 L 71.08 256.722 Q 70.842 256.502 70.689 256.212 L 70.689 256.212 L 70.689 256.212 Q 70.535 255.922 70.535 255.518 Z  M 70.491 259.859 L 70.675 259.104 L 70.675 259.104 Q 70.798 259.174 70.987 259.24 L 70.987 259.24 L 70.987 259.24 Q 71.176 259.306 71.379 259.363 L 71.379 259.363 L 71.379 259.363 Q 71.581 259.42 71.783 259.455 L 71.783 259.455 L 71.783 259.455 Q 71.985 259.49 72.161 259.49 L 72.161 259.49 L 72.187 259.49 L 72.187 260.325 L 72.17 260.325 L 72.17 260.325 Q 71.959 260.325 71.734 260.303 L 71.734 260.303 L 71.734 260.303 Q 71.51 260.281 71.282 260.229 L 71.282 260.229 L 71.282 260.229 Q 71.053 260.176 70.847 260.083 L 70.847 260.083 L 70.847 260.083 Q 70.64 259.991 70.491 259.859 L 70.491 259.859 Z  M 72.547 257.609 L 72.547 256.581 L 72.547 256.581 Q 72.838 256.713 73.141 256.862 L 73.141 256.862 L 73.141 256.862 Q 73.444 257.012 73.69 257.227 L 73.69 257.227 L 73.69 257.227 Q 73.936 257.442 74.094 257.75 L 74.094 257.75 L 74.094 257.75 Q 74.253 258.058 74.253 258.515 L 74.253 258.515 L 74.253 258.515 Q 74.253 258.831 74.134 259.13 L 74.134 259.13 L 74.134 259.13 Q 74.015 259.429 73.8 259.67 L 73.8 259.67 L 73.8 259.67 Q 73.585 259.912 73.268 260.079 L 73.268 260.079 L 73.268 260.079 Q 72.952 260.246 72.547 260.299 L 72.547 260.299 L 72.547 259.455 L 72.547 259.455 Q 73.268 259.279 73.268 258.497 L 73.268 258.497 L 73.268 258.497 Q 73.268 258.189 73.066 257.987 L 73.066 257.987 L 73.066 257.987 Q 72.864 257.785 72.547 257.609 L 72.547 257.609 Z  M 75.378 260.29 L 75.378 253.813 L 76.45 253.813 L 76.45 260.29 L 75.378 260.29 Z  M 79.157 256.651 L 79.157 257.372 L 76.81 257.372 L 76.81 256.651 L 79.157 256.651 Z  M 76.81 260.29 L 76.81 259.49 L 79.429 259.49 L 79.429 260.29 L 76.81 260.29 Z  M 76.81 253.813 L 79.429 253.813 L 79.429 254.612 L 76.81 254.612 L 76.81 253.813 Z " fill-rule="evenodd" fill="rgb(0,0,0)"/><path d=" M 12.42 265.915 L 11.69 266.565 L 11.69 266.565 Q 11.488 266.337 11.26 266.223 L 11.26 266.223 L 11.26 266.223 Q 11.031 266.108 10.768 266.091 L 10.768 266.091 L 10.768 265.221 L 10.768 265.221 Q 11.752 265.265 12.42 265.915 L 12.42 265.915 Z  M 10.768 271.839 L 10.768 270.969 L 10.768 270.969 Q 11.031 270.942 11.264 270.828 L 11.264 270.828 L 11.264 270.828 Q 11.497 270.714 11.69 270.494 L 11.69 270.494 L 12.42 271.136 L 12.42 271.136 Q 12.086 271.461 11.673 271.637 L 11.673 271.637 L 11.673 271.637 Q 11.26 271.813 10.768 271.839 L 10.768 271.839 Z  M 7.92 268.525 L 7.92 268.525 L 7.92 268.525 Q 7.92 267.743 8.109 267.146 L 8.109 267.146 L 8.109 267.146 Q 8.298 266.548 8.632 266.135 L 8.632 266.135 L 8.632 266.135 Q 8.966 265.722 9.418 265.493 L 9.418 265.493 L 9.418 265.493 Q 9.871 265.265 10.407 265.221 L 10.407 265.221 L 10.407 266.1 L 10.407 266.1 Q 10.117 266.144 9.862 266.297 L 9.862 266.297 L 9.862 266.297 Q 9.607 266.451 9.414 266.741 L 9.414 266.741 L 9.414 266.741 Q 9.221 267.031 9.111 267.475 L 9.111 267.475 L 9.111 267.475 Q 9.001 267.919 8.992 268.525 L 8.992 268.525 L 8.992 268.525 Q 9.001 269.141 9.111 269.58 L 9.111 269.58 L 9.111 269.58 Q 9.221 270.02 9.414 270.318 L 9.414 270.318 L 9.414 270.318 Q 9.607 270.617 9.867 270.775 L 9.867 270.775 L 9.867 270.775 Q 10.126 270.934 10.407 270.969 L 10.407 270.969 L 10.407 271.83 L 10.407 271.83 Q 9.871 271.795 9.418 271.566 L 9.418 271.566 L 9.418 271.566 Q 8.966 271.338 8.632 270.925 L 8.632 270.925 L 8.632 270.925 Q 8.298 270.512 8.109 269.91 L 8.109 269.91 L 8.109 269.91 Q 7.92 269.308 7.92 268.525 Z  M 13.94 265.317 L 15.013 265.317 L 15.013 270.995 L 17.992 270.995 L 17.992 271.795 L 13.94 271.795 L 13.94 265.317 Z  M 18.933 268.525 L 18.933 268.525 L 18.933 268.525 Q 18.933 267.743 19.122 267.141 L 19.122 267.141 L 19.122 267.141 Q 19.311 266.539 19.649 266.122 L 19.649 266.122 L 19.649 266.122 Q 19.987 265.704 20.449 265.48 L 20.449 265.48 L 20.449 265.48 Q 20.91 265.256 21.455 265.221 L 21.455 265.221 L 21.455 266.1 L 21.455 266.1 Q 21.156 266.135 20.893 266.284 L 20.893 266.284 L 20.893 266.284 Q 20.629 266.434 20.436 266.724 L 20.436 266.724 L 20.436 266.724 Q 20.242 267.014 20.128 267.462 L 20.128 267.462 L 20.128 267.462 Q 20.014 267.91 20.005 268.525 L 20.005 268.525 L 20.005 268.525 Q 20.014 269.149 20.128 269.593 L 20.128 269.593 L 20.128 269.593 Q 20.242 270.037 20.44 270.336 L 20.44 270.336 L 20.44 270.336 Q 20.638 270.635 20.901 270.789 L 20.901 270.789 L 20.901 270.789 Q 21.165 270.942 21.455 270.969 L 21.455 270.969 L 21.455 271.839 L 21.455 271.839 Q 20.919 271.804 20.453 271.58 L 20.453 271.58 L 20.453 271.58 Q 19.987 271.355 19.649 270.938 L 19.649 270.938 L 19.649 270.938 Q 19.311 270.521 19.122 269.914 L 19.122 269.914 L 19.122 269.914 Q 18.933 269.308 18.933 268.525 Z  M 21.807 266.091 L 21.807 265.221 L 21.807 265.221 Q 22.343 265.247 22.804 265.476 L 22.804 265.476 L 22.804 265.476 Q 23.266 265.704 23.604 266.122 L 23.604 266.122 L 23.604 266.122 Q 23.942 266.539 24.136 267.141 L 24.136 267.141 L 24.136 267.141 Q 24.329 267.743 24.329 268.525 L 24.329 268.525 L 24.329 268.525 Q 24.329 269.308 24.136 269.914 L 24.136 269.914 L 24.136 269.914 Q 23.942 270.521 23.604 270.938 L 23.604 270.938 L 23.604 270.938 Q 23.266 271.355 22.809 271.58 L 22.809 271.58 L 22.809 271.58 Q 22.352 271.804 21.807 271.839 L 21.807 271.839 L 21.807 270.969 L 21.807 270.969 Q 22.105 270.934 22.369 270.78 L 22.369 270.78 L 22.369 270.78 Q 22.633 270.626 22.826 270.332 L 22.826 270.332 L 22.826 270.332 Q 23.02 270.037 23.134 269.593 L 23.134 269.593 L 23.134 269.593 Q 23.248 269.149 23.257 268.525 L 23.257 268.525 L 23.257 268.525 Q 23.248 267.901 23.134 267.458 L 23.134 267.458 L 23.134 267.458 Q 23.02 267.014 22.822 266.719 L 22.822 266.719 L 22.822 266.719 Q 22.624 266.425 22.36 266.271 L 22.36 266.271 L 22.36 266.271 Q 22.097 266.117 21.807 266.091 L 21.807 266.091 Z  M 30.2 265.915 L 29.471 266.565 L 29.471 266.565 Q 29.269 266.337 29.04 266.223 L 29.04 266.223 L 29.04 266.223 Q 28.812 266.108 28.548 266.091 L 28.548 266.091 L 28.548 265.221 L 28.548 265.221 Q 29.532 265.265 30.2 265.915 L 30.2 265.915 Z  M 28.548 271.839 L 28.548 270.969 L 28.548 270.969 Q 28.812 270.942 29.044 270.828 L 29.044 270.828 L 29.044 270.828 Q 29.277 270.714 29.471 270.494 L 29.471 270.494 L 30.2 271.136 L 30.2 271.136 Q 29.866 271.461 29.453 271.637 L 29.453 271.637 L 29.453 271.637 Q 29.04 271.813 28.548 271.839 L 28.548 271.839 Z  M 25.7 268.525 L 25.7 268.525 L 25.7 268.525 Q 25.7 267.743 25.889 267.146 L 25.889 267.146 L 25.889 267.146 Q 26.078 266.548 26.412 266.135 L 26.412 266.135 L 26.412 266.135 Q 26.746 265.722 27.199 265.493 L 27.199 265.493 L 27.199 265.493 Q 27.651 265.265 28.188 265.221 L 28.188 265.221 L 28.188 266.1 L 28.188 266.1 Q 27.897 266.144 27.643 266.297 L 27.643 266.297 L 27.643 266.297 Q 27.388 266.451 27.194 266.741 L 27.194 266.741 L 27.194 266.741 Q 27.001 267.031 26.891 267.475 L 26.891 267.475 L 26.891 267.475 Q 26.781 267.919 26.772 268.525 L 26.772 268.525 L 26.772 268.525 Q 26.781 269.141 26.891 269.58 L 26.891 269.58 L 26.891 269.58 Q 27.001 270.02 27.194 270.318 L 27.194 270.318 L 27.194 270.318 Q 27.388 270.617 27.647 270.775 L 27.647 270.775 L 27.647 270.775 Q 27.906 270.934 28.188 270.969 L 28.188 270.969 L 28.188 271.83 L 28.188 271.83 Q 27.651 271.795 27.199 271.566 L 27.199 271.566 L 27.199 271.566 Q 26.746 271.338 26.412 270.925 L 26.412 270.925 L 26.412 270.925 Q 26.078 270.512 25.889 269.91 L 25.889 269.91 L 25.889 269.91 Q 25.7 269.308 25.7 268.525 Z  M 32.793 271.795 L 31.721 271.795 L 31.721 265.317 L 32.793 265.317 L 32.793 271.795 Z  M 35.931 265.317 L 33.856 268.648 L 36.106 271.795 L 34.885 271.795 L 33.153 269.246 L 33.153 267.963 L 34.727 265.317 L 35.931 265.317 Z  M 14.077 260.29 L 14.077 253.813 L 15.149 253.813 L 15.149 260.29 L 14.077 260.29 Z  M 17.856 256.651 L 17.856 257.372 L 15.509 257.372 L 15.509 256.651 L 17.856 256.651 Z  M 15.509 260.29 L 15.509 259.49 L 18.128 259.49 L 18.128 260.29 L 15.509 260.29 Z  M 15.509 253.813 L 18.128 253.813 L 18.128 254.612 L 15.509 254.612 L 15.509 253.813 Z  M 21.161 257.144 L 19.412 253.813 L 20.616 253.813 L 21.67 256.238 L 21.67 258.251 L 20.739 260.29 L 19.517 260.29 L 21.161 257.144 Z  M 23.085 253.813 L 24.29 253.813 L 22.541 257.144 L 24.184 260.29 L 22.962 260.29 L 22.031 258.066 L 22.031 256.063 L 23.085 253.813 Z  M 25.379 253.813 L 30.31 253.813 L 30.31 254.533 L 28.376 254.533 L 28.376 260.29 L 27.313 260.29 L 27.313 254.533 L 25.379 254.533 L 25.379 253.813 Z " fill-rule="evenodd" fill="rgb(0,0,0)"/><path d=" M 15.256 308.828 L 16.205 308.828 L 16.319 309.329 L 16.319 313.785 L 15.256 313.785 L 15.256 308.828 Z  M 18.947 309.373 L 18.947 309.373 L 18.947 309.373 Q 19.097 309.522 19.18 309.72 L 19.18 309.72 L 19.18 309.72 Q 19.264 309.918 19.303 310.133 L 19.303 310.133 L 19.303 310.133 Q 19.343 310.349 19.352 310.568 L 19.352 310.568 L 19.352 310.568 Q 19.36 310.788 19.36 310.999 L 19.36 310.999 L 19.36 313.609 L 19.36 313.785 L 18.288 313.785 L 18.288 311.087 L 18.288 311.087 Q 18.288 310.788 18.262 310.516 L 18.262 310.516 L 18.262 310.516 Q 18.235 310.243 18.139 310.032 L 18.139 310.032 L 18.139 310.032 Q 18.042 309.821 17.875 309.703 L 17.875 309.703 L 17.875 309.703 Q 17.708 309.584 17.409 309.584 L 17.409 309.584 L 17.409 309.584 Q 17.286 309.584 17.08 309.624 L 17.08 309.624 L 17.08 309.624 Q 16.873 309.663 16.68 309.751 L 16.68 309.751 L 16.68 309.074 L 16.68 309.074 Q 16.917 308.951 17.194 308.863 L 17.194 308.863 L 17.194 308.863 Q 17.471 308.775 17.734 308.775 L 17.734 308.775 L 17.734 308.775 Q 18.13 308.775 18.402 308.938 L 18.402 308.938 L 18.402 308.938 Q 18.675 309.101 18.947 309.373 Z  M 25.398 310.858 L 25.398 311.755 L 23.368 311.755 L 23.368 313.785 L 22.472 313.785 L 22.472 311.755 L 20.441 311.755 L 20.441 310.858 L 22.472 310.858 L 22.472 308.828 L 23.368 308.828 L 23.368 310.858 L 25.398 310.858 Z  M 28.738 307.308 L 28.738 313.785 L 27.666 313.785 L 27.666 308.819 L 26.778 309.707 L 26.022 308.951 L 27.666 307.308 L 28.738 307.308 Z " fill-rule="evenodd" fill="rgb(0,0,0)"/><path d=" M 66.832 309.232 L 66.832 309.232 L 66.832 309.232 Q 66.832 309.575 66.682 309.94 L 66.682 309.94 L 66.682 309.94 Q 66.533 310.305 66.287 310.661 L 66.287 310.661 L 66.287 310.661 Q 66.041 311.017 65.746 311.351 L 65.746 311.351 L 65.746 311.351 Q 65.452 311.685 65.157 311.983 L 65.157 311.983 L 65.157 311.983 Q 64.863 312.282 64.604 312.524 L 64.604 312.524 L 64.604 312.524 Q 64.344 312.766 64.177 312.933 L 64.177 312.933 L 66.928 312.933 L 66.928 313.785 L 62.903 313.785 L 62.903 312.801 L 62.903 312.801 Q 63.061 312.66 63.342 312.418 L 63.342 312.418 L 63.342 312.418 Q 63.624 312.177 63.949 311.878 L 63.949 311.878 L 63.949 311.878 Q 64.274 311.579 64.599 311.241 L 64.599 311.241 L 64.599 311.241 Q 64.925 310.902 65.193 310.555 L 65.193 310.555 L 65.193 310.555 Q 65.461 310.208 65.632 309.874 L 65.632 309.874 L 65.632 309.874 Q 65.803 309.54 65.803 309.241 L 65.803 309.241 L 65.803 309.241 Q 65.803 308.934 65.694 308.727 L 65.694 308.727 L 65.694 308.727 Q 65.584 308.521 65.417 308.389 L 65.417 308.389 L 65.417 308.389 Q 65.25 308.257 65.052 308.204 L 65.052 308.204 L 65.052 308.204 Q 64.854 308.151 64.678 308.151 L 64.678 308.151 L 64.678 308.151 Q 64.336 308.151 64.112 308.173 L 64.112 308.173 L 64.112 308.173 Q 63.887 308.195 63.72 308.235 L 63.72 308.235 L 63.72 308.235 Q 63.553 308.274 63.422 308.345 L 63.422 308.345 L 63.422 308.345 Q 63.29 308.415 63.14 308.503 L 63.14 308.503 L 62.833 307.853 L 62.833 307.853 Q 62.991 307.712 63.224 307.598 L 63.224 307.598 L 63.224 307.598 Q 63.457 307.483 63.707 307.413 L 63.707 307.413 L 63.707 307.413 Q 63.958 307.343 64.204 307.303 L 64.204 307.303 L 64.204 307.303 Q 64.45 307.264 64.661 307.264 L 64.661 307.264 L 64.661 307.264 Q 65.232 307.264 65.641 307.448 L 65.641 307.448 L 65.641 307.448 Q 66.05 307.633 66.313 307.918 L 66.313 307.918 L 66.313 307.918 Q 66.577 308.204 66.704 308.556 L 66.704 308.556 L 66.704 308.556 Q 66.832 308.907 66.832 309.232 Z " fill="rgb(0,0,0)"/><path d=" M 68.633 304.37 L 69.372 304.37 L 69.461 304.76 L 69.461 308.226 L 68.633 308.226 L 68.633 304.37 Z  M 71.505 304.794 L 71.505 304.794 L 71.505 304.794 Q 71.621 304.91 71.686 305.064 L 71.686 305.064 L 71.686 305.064 Q 71.751 305.218 71.781 305.385 L 71.781 305.385 L 71.781 305.385 Q 71.812 305.553 71.819 305.724 L 71.819 305.724 L 71.819 305.724 Q 71.826 305.895 71.826 306.059 L 71.826 306.059 L 71.826 308.089 L 71.826 308.226 L 70.992 308.226 L 70.992 306.127 L 70.992 306.127 Q 70.992 305.895 70.971 305.683 L 70.971 305.683 L 70.971 305.683 Q 70.951 305.471 70.876 305.307 L 70.876 305.307 L 70.876 305.307 Q 70.8 305.143 70.671 305.05 L 70.671 305.05 L 70.671 305.05 Q 70.541 304.958 70.308 304.958 L 70.308 304.958 L 70.308 304.958 Q 70.213 304.958 70.052 304.989 L 70.052 304.989 L 70.052 304.989 Q 69.891 305.02 69.741 305.088 L 69.741 305.088 L 69.741 304.562 L 69.741 304.562 Q 69.925 304.466 70.141 304.397 L 70.141 304.397 L 70.141 304.397 Q 70.356 304.329 70.561 304.329 L 70.561 304.329 L 70.561 304.329 Q 70.869 304.329 71.081 304.456 L 71.081 304.456 L 71.081 304.456 Q 71.293 304.582 71.505 304.794 Z " fill-rule="evenodd" fill="rgb(0,0,0)"/></g></svg>